<?xml version="1.0" encoding="UTF-8" standalone="no"?>
<svg
   xmlns:dc="http://purl.org/dc/elements/1.1/"
   xmlns:cc="http://creativecommons.org/ns#"
   xmlns:rdf="http://www.w3.org/1999/02/22-rdf-syntax-ns#"
   xmlns:svg="http://www.w3.org/2000/svg"
   xmlns="http://www.w3.org/2000/svg"
   xmlns:xlink="http://www.w3.org/1999/xlink"
   xmlns:sodipodi="http://sodipodi.sourceforge.net/DTD/sodipodi-0.dtd"
   xmlns:inkscape="http://www.inkscape.org/namespaces/inkscape"
   inkscape:export-ydpi="215.44792"
   inkscape:export-xdpi="215.44792"
   inkscape:export-filename="/home/byron/art/cards/final/PNGs/2_of_hearts.png"
   sodipodi:docname="2_of_hearts.svg"
   inkscape:version="1.0 (4035a4fb49, 2020-05-01)"
   version="1.1"
   id="svg2"
   xml:space="preserve"
   viewBox="0 0 167.0869141 242.6669922"
   height="242.6669922pt"
   width="167.0869141pt"><metadata
   id="metadata43"><rdf:RDF><cc:Work
       rdf:about=""><dc:format>image/svg+xml</dc:format><dc:type
         rdf:resource="http://purl.org/dc/dcmitype/StillImage" /><dc:title /></cc:Work></rdf:RDF></metadata><defs
   id="defs41"><radialGradient
     gradientUnits="userSpaceOnUse"
     gradientTransform="matrix(-1.5842693,-0.02349808,0.03071979,-2.4775745,-0.24856378,-26.713507)"
     r="7.9997029"
     fy="-8.8345356"
     fx="-0.15782039"
     cy="-8.8345356"
     cx="-0.15782039"
     id="radialGradient3781"
     xlink:href="#linearGradient3773"
     inkscape:collect="always" /><linearGradient
     id="linearGradient3773"><stop
       id="stop3775"
       offset="0"
       style="stop-color:#000000;stop-opacity:1;" /><stop
       id="stop3777"
       offset="1"
       style="stop-color:#000000;stop-opacity:0.64885497;" /></linearGradient><radialGradient
     gradientUnits="userSpaceOnUse"
     gradientTransform="matrix(-1.5842693,-0.02349808,0.03071979,-2.4775745,-0.24856378,-26.713507)"
     r="7.9997029"
     fy="-8.8345356"
     fx="-0.15782039"
     cy="-8.8345356"
     cx="-0.15782039"
     id="radialGradient3957"
     xlink:href="#linearGradient3773"
     inkscape:collect="always" /><linearGradient
     id="linearGradient3959"><stop
       id="stop3961"
       offset="0"
       style="stop-color:#000000;stop-opacity:1;" /><stop
       id="stop3963"
       offset="1"
       style="stop-color:#000000;stop-opacity:0.64885497;" /></linearGradient><radialGradient
     inkscape:collect="always"
     xlink:href="#linearGradient3784-4"
     id="radialGradient3975"
     gradientUnits="userSpaceOnUse"
     gradientTransform="matrix(1.2565605,-0.77740644,0.33663816,0.5361257,-221.20213,359.24256)"
     cx="168.02475"
     cy="509.47577"
     fx="168.02475"
     fy="509.47577"
     r="81.902771" /><linearGradient
     id="linearGradient3784-4"><stop
       id="stop3786-8"
       offset="0"
       style="stop-color:#ffffff;stop-opacity:0.4351145;" /><stop
       id="stop3788-6"
       offset="1"
       style="stop-color:#000000;stop-opacity:0;" /></linearGradient><radialGradient
     r="81.902771"
     fy="509.47577"
     fx="168.02475"
     cy="509.47577"
     cx="168.02475"
     gradientTransform="matrix(1.2565605,-0.77740644,0.33663816,0.5361257,-221.20213,359.24256)"
     gradientUnits="userSpaceOnUse"
     id="radialGradient3929"
     xlink:href="#linearGradient3784-4-5"
     inkscape:collect="always" /><linearGradient
     id="linearGradient3784-4-5"><stop
       id="stop3786-8-0"
       offset="0"
       style="stop-color:#ffffff;stop-opacity:0.48854962;" /><stop
       id="stop3788-6-3"
       offset="1"
       style="stop-color:#000000;stop-opacity:0;" /></linearGradient><radialGradient
     r="81.902771"
     fy="509.47577"
     fx="168.02475"
     cy="509.47577"
     cx="168.02475"
     gradientTransform="matrix(1.2565605,-0.77740644,0.33663816,0.5361257,-221.20213,359.24256)"
     gradientUnits="userSpaceOnUse"
     id="radialGradient3927"
     xlink:href="#linearGradient3784-4-1"
     inkscape:collect="always" /><linearGradient
     id="linearGradient3784-4-1"><stop
       id="stop3786-8-03"
       offset="0"
       style="stop-color:#ffffff;stop-opacity:0.23664123;" /><stop
       id="stop3788-6-6"
       offset="1"
       style="stop-color:#000000;stop-opacity:0;" /></linearGradient><radialGradient
     gradientUnits="userSpaceOnUse"
     gradientTransform="matrix(-1,0,0,-1.7201755,-0.41204074,-13.027194)"
     r="8"
     fy="-4.5786963"
     fx="-0.20602037"
     cy="-4.5786963"
     cx="-0.20602037"
     id="radialGradient3776"
     xlink:href="#linearGradient3768"
     inkscape:collect="always" /><linearGradient
     id="linearGradient3768"><stop
       id="stop3770"
       offset="0"
       style="stop-color:#df0000;stop-opacity:1;" /><stop
       id="stop3772"
       offset="1"
       style="stop-color:#df0000;stop-opacity:0.67175573;" /></linearGradient><radialGradient
     inkscape:collect="always"
     xlink:href="#linearGradient3784-4-6"
     id="radialGradient4013"
     gradientUnits="userSpaceOnUse"
     gradientTransform="matrix(1.1529891,-0.67391547,0.39482025,0.67549043,-233.63262,270.40076)"
     cx="171.48665"
     cy="511.22299"
     fx="171.48665"
     fy="511.22299"
     r="81.902771" /><linearGradient
     id="linearGradient3784-4-6"><stop
       id="stop3786-8-8"
       offset="0"
       style="stop-color:#ffffff;stop-opacity:0.31297711;" /><stop
       id="stop3788-6-8"
       offset="1"
       style="stop-color:#000000;stop-opacity:0;" /></linearGradient><radialGradient
     inkscape:collect="always"
     xlink:href="#linearGradient3784-4-2"
     id="radialGradient4013-8"
     gradientUnits="userSpaceOnUse"
     gradientTransform="matrix(1.0894779,-0.71513803,0.44645273,0.65626582,-244.93331,290.9185)"
     cx="159.35434"
     cy="492.63205"
     fx="159.35434"
     fy="492.63205"
     r="81.902771" /><linearGradient
     id="linearGradient3784-4-2"><stop
       id="stop3786-8-1"
       offset="0"
       style="stop-color:#ffffff;stop-opacity:0.29007635;" /><stop
       id="stop3788-6-5"
       offset="1"
       style="stop-color:#000000;stop-opacity:0;" /></linearGradient><radialGradient
     inkscape:collect="always"
     xlink:href="#linearGradient3784-4-2"
     id="radialGradient3073"
     gradientUnits="userSpaceOnUse"
     gradientTransform="matrix(1.0894779,-0.71513803,0.44645273,0.65626582,-244.93331,290.9185)"
     cx="159.35434"
     cy="492.63205"
     fx="159.35434"
     fy="492.63205"
     r="81.902771" /></defs><sodipodi:namedview
   inkscape:document-rotation="0"
   inkscape:current-layer="svg2"
   inkscape:window-maximized="1"
   inkscape:window-y="-8"
   inkscape:window-x="-8"
   inkscape:cy="147.27218"
   inkscape:cx="-28.405554"
   inkscape:zoom="1.7208768"
   showgrid="false"
   id="namedview39"
   inkscape:window-height="1377"
   inkscape:window-width="2560"
   inkscape:pageshadow="2"
   inkscape:pageopacity="0"
   guidetolerance="10"
   gridtolerance="10"
   objecttolerance="10"
   borderopacity="1"
   bordercolor="#666666"
   pagecolor="#ffffff" />
	<g
   style="fill-rule:nonzero;clip-rule:nonzero;stroke:#000000;stroke-miterlimit:4;"
   id="Layer_x0020_1">
		<path
   id="path5"
   d="M166.8369141,235.5478516c0,3.7773438-3.0869141,6.8691406-6.8710938,6.8691406H7.1108398c-3.7749023,0-6.8608398-3.0917969-6.8608398-6.8691406V7.1201172C0.25,3.3427734,3.3359375,0.25,7.1108398,0.25h152.8549805    c3.7841797,0,6.8710938,3.0927734,6.8710938,6.8701172v228.4277344z"
   style="fill:#FFFFFF;stroke-width:0.5;" />
		<g
   id="g7"
   style="stroke:none;">
			<g
   id="g9">
				
			</g>
			
		</g>
		<g
   id="g15">
			
		</g>
		<g
   id="g19">
			
		</g>
		<g
   id="g23"
   style="stroke:none;">
			<g
   id="g25">
				
			</g>
			
		</g>
		<g
   id="g31"
   style="stroke:none;">
			<g
   id="g33">
				
			</g>
			
		</g>
	</g>



<g
   style="font-style:normal;font-weight:normal;line-height:0%;font-family:'Bitstream Vera Sans';letter-spacing:0px;word-spacing:0px;fill:#df0000;fill-opacity:1;stroke:none"
   id="text3788"
   aria-label="2"><path
     id="path884"
     style="font-style:normal;font-variant:normal;font-weight:normal;font-stretch:normal;font-size:32px;line-height:1.25;font-family:Arial;-inkscape-font-specification:Arial;fill:#df0000;fill-opacity:1"
     d="m 24.8848,25.310163 v 2.703125 H 9.744175 q -0.03125,-1.015625 0.328125,-1.953125 0.578125,-1.546875 1.84375,-3.046875 1.28125,-1.5 3.6875,-3.46875 3.734375,-3.0625 5.046875,-4.84375 1.3125,-1.796875 1.3125,-3.390625 0,-1.6718745 -1.203125,-2.8124995 -1.1875,-1.15625 -3.109375,-1.15625 -2.03125,0 -3.25,1.21875 -1.21875,1.21875 -1.234375,3.3749995 L 10.275425,11.638288 Q 10.5723,8.4039135 12.5098,6.7164135 q 1.9375,-1.703125 5.203125,-1.703125 3.296875,0 5.21875,1.828125 1.921875,1.828125 1.921875,4.5312495 0,1.375 -0.5625,2.703125 -0.5625,1.328125 -1.875,2.796875 -1.296875,1.46875 -4.328125,4.03125 -2.53125,2.125 -3.25,2.890625 -0.71875,0.75 -1.1875,1.515625 z" /></g>






<g
   style="fill:#df0000;fill-opacity:1"
   id="layer1-9-6"
   transform="matrix(1.6743072,0,0,1.5669921,17.177511,46.385321)"><path
     sodipodi:nodetypes="scsscss"
     d="M 3.676,-9 C 0.433,-9 0,-5.523 0,-5.523 0,-5.523 -0.433,-9 -3.676,-9 -5.946,-9 -8,-7.441 -8,-4.5 -8,-0.614 -1.4208493,3.2938141 0,9 1.35201,3.2985969 8,-0.614 8,-4.5 8,-7.441 5.946,-9 3.676,-9 z"
     id="hl-8"
     inkscape:connector-curvature="0"
     style="fill:#df0000;fill-opacity:1" /></g><g
   style="font-style:normal;font-weight:normal;line-height:0%;font-family:'Bitstream Vera Sans';letter-spacing:0px;word-spacing:0px;fill:#df0000;fill-opacity:1;stroke:none"
   id="text3788-4"
   transform="scale(-1)"
   aria-label="2"><path
     id="path887"
     style="font-style:normal;font-variant:normal;font-weight:normal;font-stretch:normal;font-size:32px;line-height:1.25;font-family:Arial;-inkscape-font-specification:Arial;fill:#df0000;fill-opacity:1"
     d="m -142.70824,-216.21829 v 2.70312 h -15.14062 q -0.0312,-1.01562 0.32812,-1.95312 0.57813,-1.54688 1.84375,-3.04688 1.28125,-1.5 3.6875,-3.46875 3.73438,-3.0625 5.04688,-4.84375 1.3125,-1.79687 1.3125,-3.39062 0,-1.67188 -1.20313,-2.8125 -1.1875,-1.15625 -3.10937,-1.15625 -2.03125,0 -3.25,1.21875 -1.21875,1.21875 -1.23438,3.375 l -2.89062,-0.29688 q 0.29687,-3.23437 2.23437,-4.92187 1.9375,-1.70313 5.20313,-1.70313 3.29687,0 5.21875,1.82813 1.92187,1.82812 1.92187,4.53125 0,1.375 -0.5625,2.70312 -0.5625,1.32813 -1.875,2.79688 -1.29687,1.46875 -4.32812,4.03125 -2.53125,2.125 -3.25,2.89062 -0.71875,0.75 -1.1875,1.51563 z" /></g>





<g
   style="fill:#df0000;fill-opacity:1"
   id="layer1-9-6-5"
   transform="matrix(-1.6743072,0,0,-1.5669921,150.15601,195.14313)"><path
     sodipodi:nodetypes="scsscss"
     d="M 3.676,-9 C 0.433,-9 0,-5.523 0,-5.523 0,-5.523 -0.433,-9 -3.676,-9 -5.946,-9 -8,-7.441 -8,-4.5 -8,-0.614 -1.4208493,3.2938141 0,9 1.35201,3.2985969 8,-0.614 8,-4.5 8,-7.441 5.946,-9 3.676,-9 z"
     id="hl-8-1"
     inkscape:connector-curvature="0"
     style="fill:#df0000;fill-opacity:1" /></g><g
   style="fill:#df0000;fill-opacity:1"
   id="layer1-9-6-8"
   transform="matrix(2.7790082,0,0,2.600887,83.701068,56.859768)"><path
     sodipodi:nodetypes="scsscss"
     d="M 3.676,-9 C 0.433,-9 0,-5.523 0,-5.523 0,-5.523 -0.433,-9 -3.676,-9 -5.946,-9 -8,-7.441 -8,-4.5 -8,-0.614 -1.4208493,3.2938141 0,9 1.35201,3.2985969 8,-0.614 8,-4.5 8,-7.441 5.946,-9 3.676,-9 z"
     id="hl-8-8"
     inkscape:connector-curvature="0"
     style="fill:#df0000;fill-opacity:1" /></g><g
   style="fill:#df0000;fill-opacity:1"
   id="layer1-9-6-8-9"
   transform="matrix(-2.7790082,0,0,-2.600887,83.701068,185.26217)"><path
     sodipodi:nodetypes="scsscss"
     d="M 3.676,-9 C 0.433,-9 0,-5.523 0,-5.523 0,-5.523 -0.433,-9 -3.676,-9 -5.946,-9 -8,-7.441 -8,-4.5 -8,-0.614 -1.4208493,3.2938141 0,9 1.35201,3.2985969 8,-0.614 8,-4.5 8,-7.441 5.946,-9 3.676,-9 z"
     id="hl-8-8-5"
     inkscape:connector-curvature="0"
     style="fill:#df0000;fill-opacity:1" /></g></svg>
