<?xml version="1.0" encoding="UTF-8" standalone="no"?>
<svg
   xmlns:dc="http://purl.org/dc/elements/1.1/"
   xmlns:cc="http://creativecommons.org/ns#"
   xmlns:rdf="http://www.w3.org/1999/02/22-rdf-syntax-ns#"
   xmlns:svg="http://www.w3.org/2000/svg"
   xmlns="http://www.w3.org/2000/svg"
   xmlns:xlink="http://www.w3.org/1999/xlink"
   xmlns:sodipodi="http://sodipodi.sourceforge.net/DTD/sodipodi-0.dtd"
   xmlns:inkscape="http://www.inkscape.org/namespaces/inkscape"
   inkscape:export-ydpi="215.44792"
   inkscape:export-xdpi="215.44792"
   inkscape:export-filename="/home/byron/art/cards/final/PNGs/8_of_clubs.png"
   sodipodi:docname="8_of_clubs.svg"
   inkscape:version="1.0 (4035a4fb49, 2020-05-01)"
   version="1.1"
   id="svg2"
   xml:space="preserve"
   viewBox="0 0 167.0869141 242.6669922"
   height="242.6669922pt"
   width="167.0869141pt"><metadata
   id="metadata43"><rdf:RDF><cc:Work
       rdf:about=""><dc:format>image/svg+xml</dc:format><dc:type
         rdf:resource="http://purl.org/dc/dcmitype/StillImage" /><dc:title /></cc:Work></rdf:RDF></metadata><defs
   id="defs41"><radialGradient
     gradientTransform="matrix(-1.5605256,0.01828294,-0.02684055,-2.2909528,123.98377,58.809108)"
     gradientUnits="userSpaceOnUse"
     r="9.5"
     fy="18.137882"
     fx="48.231091"
     cy="18.137882"
     cx="48.231091"
     id="radialGradient3760"
     xlink:href="#linearGradient2984"
     inkscape:collect="always" /><linearGradient
     id="linearGradient2984"><stop
       id="stop2986"
       offset="0"
       style="stop-color:#000000;stop-opacity:1;" /><stop
       id="stop2988"
       offset="1"
       style="stop-color:#000000;stop-opacity:0.65648854;" /></linearGradient><radialGradient
     gradientUnits="userSpaceOnUse"
     gradientTransform="matrix(1.1529891,-0.67391547,0.39482025,0.67549043,-233.63262,270.40076)"
     r="81.902771"
     fy="511.22299"
     fx="171.48665"
     cy="511.22299"
     cx="171.48665"
     id="radialGradient3792"
     xlink:href="#linearGradient3784"
     inkscape:collect="always" /><linearGradient
     id="linearGradient3784"><stop
       id="stop3786"
       offset="0"
       style="stop-color:#ffffff;stop-opacity:0.53435117;" /><stop
       id="stop3788"
       offset="1"
       style="stop-color:#000000;stop-opacity:0;" /></linearGradient><radialGradient
     inkscape:collect="always"
     xlink:href="#linearGradient3784-4"
     id="radialGradient3855"
     gradientUnits="userSpaceOnUse"
     gradientTransform="matrix(1.1529891,-0.67391547,0.39482025,0.67549043,-233.63262,270.40076)"
     cx="171.48665"
     cy="511.22299"
     fx="171.48665"
     fy="511.22299"
     r="81.902771" /><linearGradient
     id="linearGradient3784-4"><stop
       id="stop3786-8"
       offset="0"
       style="stop-color:#ffffff;stop-opacity:0.51908398;" /><stop
       id="stop3788-6"
       offset="1"
       style="stop-color:#000000;stop-opacity:0;" /></linearGradient><radialGradient
     inkscape:collect="always"
     xlink:href="#linearGradient3784-3"
     id="radialGradient3916"
     gradientUnits="userSpaceOnUse"
     gradientTransform="matrix(1.1529891,-0.67391547,0.39482025,0.67549043,-233.63262,270.40076)"
     cx="181.69392"
     cy="461.84113"
     fx="181.69392"
     fy="461.84113"
     r="81.902771" /><linearGradient
     id="linearGradient3784-3"><stop
       id="stop3786-86"
       offset="0"
       style="stop-color:#ffffff;stop-opacity:0.70229006;" /><stop
       id="stop3788-2"
       offset="1"
       style="stop-color:#000000;stop-opacity:0;" /></linearGradient></defs><sodipodi:namedview
   inkscape:document-rotation="0"
   inkscape:current-layer="svg2"
   inkscape:window-maximized="1"
   inkscape:window-y="-8"
   inkscape:window-x="-8"
   inkscape:cy="148.16686"
   inkscape:cx="117.62976"
   inkscape:zoom="2.4336873"
   showgrid="false"
   id="namedview39"
   inkscape:window-height="1377"
   inkscape:window-width="2560"
   inkscape:pageshadow="2"
   inkscape:pageopacity="0"
   guidetolerance="10"
   gridtolerance="10"
   objecttolerance="10"
   borderopacity="1"
   bordercolor="#666666"
   pagecolor="#ffffff" />
	<g
   style="fill-rule:nonzero;clip-rule:nonzero;stroke:#000000;stroke-miterlimit:4;"
   id="Layer_x0020_1">
		<path
   id="path5"
   d="M166.8369141,235.5478516c0,3.7773438-3.0869141,6.8691406-6.8710938,6.8691406H7.1108398c-3.7749023,0-6.8608398-3.0917969-6.8608398-6.8691406V7.1201172C0.25,3.3427734,3.3359375,0.25,7.1108398,0.25h152.8549805    c3.7841797,0,6.8710938,3.0927734,6.8710938,6.8701172v228.4277344z"
   style="fill:#FFFFFF;stroke-width:0.5;" />
		<g
   id="g7"
   style="stroke:none;">
			<g
   id="g9">
				
			</g>
			
		</g>
		<g
   id="g15">
			
		</g>
		<g
   id="g19">
			
		</g>
		<g
   id="g23"
   style="stroke:none;">
			<g
   id="g25">
				
			</g>
			
		</g>
		<g
   id="g31"
   style="stroke:none;">
			<g
   id="g33">
				
			</g>
			
		</g>
	</g>
<g
   style="font-style:normal;font-weight:normal;line-height:0%;font-family:'Bitstream Vera Sans';letter-spacing:0px;word-spacing:0px;fill:#000000;fill-opacity:1;stroke:none"
   id="text3788"
   aria-label="8"><path
     id="path879"
     style="font-style:normal;font-variant:normal;font-weight:normal;font-stretch:normal;font-size:32px;line-height:1.25;font-family:Arial;-inkscape-font-specification:Arial"
     d="m 13.966796,15.126534 q -1.75,-0.640625 -2.59375,-1.828125 -0.84375,-1.1875 -0.84375,-2.84375 0,-2.5000005 1.796875,-4.2031255 1.796875,-1.703125 4.78125,-1.703125 3,0 4.828125,1.75 1.828125,1.734375 1.828125,4.2343755 0,1.59375 -0.84375,2.78125 -0.828125,1.171875 -2.53125,1.8125 2.109375,0.6875 3.203125,2.21875 1.109375,1.53125 1.109375,3.65625 0,2.9375 -2.078125,4.9375 -2.078125,2 -5.46875,2 -3.390625,0 -5.46875,-2 -2.0781251,-2.015625 -2.0781251,-5.015625 0,-2.234375 1.1250001,-3.734375 1.140625,-1.515625 3.234375,-2.0625 z m -0.5625,-4.765625 q 0,1.625 1.046875,2.65625 1.046875,1.03125 2.71875,1.03125 1.625,0 2.65625,-1.015625 1.046875,-1.03125 1.046875,-2.515625 0,-1.5468755 -1.078125,-2.5937505 -1.0625,-1.0625 -2.65625,-1.0625 -1.609375,0 -2.671875,1.03125 -1.0625,1.03125 -1.0625,2.4687505 z m -0.90625,10.578125 q 0,1.203125 0.5625,2.328125 0.578125,1.125 1.703125,1.75 1.125,0.609375 2.421875,0.609375 2.015625,0 3.328125,-1.296875 1.3125,-1.296875 1.3125,-3.296875 0,-2.03125 -1.359375,-3.359375 -1.34375,-1.328125 -3.375,-1.328125 -1.984375,0 -3.296875,1.3125 -1.296875,1.3125 -1.296875,3.28125 z" /></g>









<g
   id="layer1-1-4"
   transform="matrix(1.4856506,0,0,1.4856506,-54.024661,10.018072)"><path
     style="fill:#000000"
     inkscape:connector-curvature="0"
     d="m 50.291466,22.698228 c 0,0 2.375,-1.9 2.375,-4.534 0,-1.542 -1.369,-4.102 -4.534,-4.102 -3.165,0 -4.534,2.561 -4.534,4.102 0,2.634 2.375,4.534 2.375,4.534 -2.638,-2.055 -7.341,-0.652 -7.341,3.455 0,2.056 1.68,4.318 4.318,4.318 3.165,0 4.534,-3.455 4.534,-3.455 0,0 0.402,3.938 -1.943,6.046 h 5.182 c -2.345,-2.107 -1.943,-6.046 -1.943,-6.046 0,0 1.369,3.455 4.534,3.455 2.639,0 4.318,-2.263 4.318,-4.318 0,-4.107 -4.703,-5.51 -7.341,-3.455 z"
     id="cl-9" /></g><g
   style="font-style:normal;font-weight:normal;line-height:0%;font-family:'Bitstream Vera Sans';letter-spacing:0px;word-spacing:0px;fill:#000000;fill-opacity:1;stroke:none"
   id="text3788-8"
   transform="scale(-1)"
   aria-label="8"><path
     id="path882"
     style="font-style:normal;font-variant:normal;font-weight:normal;font-stretch:normal;font-size:32px;line-height:1.25;font-family:Arial;-inkscape-font-specification:Arial"
     d="m -153.2077,-226.88847 q -1.75,-0.64063 -2.59375,-1.82813 -0.84375,-1.1875 -0.84375,-2.84375 0,-2.5 1.79687,-4.20312 1.79688,-1.70313 4.78125,-1.70313 3,0 4.82813,1.75 1.82812,1.73438 1.82812,4.23438 0,1.59375 -0.84375,2.78125 -0.82812,1.17187 -2.53125,1.8125 2.10938,0.6875 3.20313,2.21875 1.10937,1.53125 1.10937,3.65625 0,2.9375 -2.07812,4.9375 -2.07813,2 -5.46875,2 -3.39063,0 -5.46875,-2 -2.07813,-2.01563 -2.07813,-5.01563 0,-2.23437 1.125,-3.73437 1.14063,-1.51563 3.23438,-2.0625 z m -0.5625,-4.76563 q 0,1.625 1.04687,2.65625 1.04688,1.03125 2.71875,1.03125 1.625,0 2.65625,-1.01562 1.04688,-1.03125 1.04688,-2.51563 0,-1.54687 -1.07813,-2.59375 -1.0625,-1.0625 -2.65625,-1.0625 -1.60937,0 -2.67187,1.03125 -1.0625,1.03125 -1.0625,2.46875 z m -0.90625,10.57813 q 0,1.20312 0.5625,2.32812 0.57812,1.125 1.70312,1.75 1.125,0.60938 2.42188,0.60938 2.01562,0 3.32812,-1.29688 1.3125,-1.29687 1.3125,-3.29687 0,-2.03125 -1.35937,-3.35938 -1.34375,-1.32812 -3.375,-1.32812 -1.98438,0 -3.29688,1.3125 -1.29687,1.3125 -1.29687,3.28125 z" /></g>







<g
   id="layer1-1-4-1"
   transform="matrix(-1.4856506,0,0,-1.4856506,221.19916,232.46182)"><path
     style="fill:#000000"
     inkscape:connector-curvature="0"
     d="m 50.291466,22.698228 c 0,0 2.375,-1.9 2.375,-4.534 0,-1.542 -1.369,-4.102 -4.534,-4.102 -3.165,0 -4.534,2.561 -4.534,4.102 0,2.634 2.375,4.534 2.375,4.534 -2.638,-2.055 -7.341,-0.652 -7.341,3.455 0,2.056 1.68,4.318 4.318,4.318 3.165,0 4.534,-3.455 4.534,-3.455 0,0 0.402,3.938 -1.943,6.046 h 5.182 c -2.345,-2.107 -1.943,-6.046 -1.943,-6.046 0,0 1.369,3.455 4.534,3.455 2.639,0 4.318,-2.263 4.318,-4.318 0,-4.107 -4.703,-5.51 -7.341,-3.455 z"
     id="cl-9-7" /></g><g
   id="layer1-1-4-8"
   transform="matrix(2.5125778,0,0,2.5125778,-63.988386,-27.131116)"><path
     style="fill:#000000"
     inkscape:connector-curvature="0"
     d="m 50.291466,22.698228 c 0,0 2.375,-1.9 2.375,-4.534 0,-1.542 -1.369,-4.102 -4.534,-4.102 -3.165,0 -4.534,2.561 -4.534,4.102 0,2.634 2.375,4.534 2.375,4.534 -2.638,-2.055 -7.341,-0.652 -7.341,3.455 0,2.056 1.68,4.318 4.318,4.318 3.165,0 4.534,-3.455 4.534,-3.455 0,0 0.402,3.938 -1.943,6.046 h 5.182 c -2.345,-2.107 -1.943,-6.046 -1.943,-6.046 0,0 1.369,3.455 4.534,3.455 2.639,0 4.318,-2.263 4.318,-4.318 0,-4.107 -4.703,-5.51 -7.341,-3.455 z"
     id="cl-9-8" /></g><g
   id="layer1-1-4-8-0"
   transform="matrix(-2.5125778,0,0,-2.5125778,177.92954,269.27515)"><path
     style="fill:#000000"
     inkscape:connector-curvature="0"
     d="m 50.291466,22.698228 c 0,0 2.375,-1.9 2.375,-4.534 0,-1.542 -1.369,-4.102 -4.534,-4.102 -3.165,0 -4.534,2.561 -4.534,4.102 0,2.634 2.375,4.534 2.375,4.534 -2.638,-2.055 -7.341,-0.652 -7.341,3.455 0,2.056 1.68,4.318 4.318,4.318 3.165,0 4.534,-3.455 4.534,-3.455 0,0 0.402,3.938 -1.943,6.046 h 5.182 c -2.345,-2.107 -1.943,-6.046 -1.943,-6.046 0,0 1.369,3.455 4.534,3.455 2.639,0 4.318,-2.263 4.318,-4.318 0,-4.107 -4.703,-5.51 -7.341,-3.455 z"
     id="cl-9-8-6" /></g><g
   id="layer1-1-4-8-2"
   transform="matrix(2.5125778,0,0,2.5125778,-63.988386,63.369684)"><path
     style="fill:#000000"
     inkscape:connector-curvature="0"
     d="m 50.291466,22.698228 c 0,0 2.375,-1.9 2.375,-4.534 0,-1.542 -1.369,-4.102 -4.534,-4.102 -3.165,0 -4.534,2.561 -4.534,4.102 0,2.634 2.375,4.534 2.375,4.534 -2.638,-2.055 -7.341,-0.652 -7.341,3.455 0,2.056 1.68,4.318 4.318,4.318 3.165,0 4.534,-3.455 4.534,-3.455 0,0 0.402,3.938 -1.943,6.046 h 5.182 c -2.345,-2.107 -1.943,-6.046 -1.943,-6.046 0,0 1.369,3.455 4.534,3.455 2.639,0 4.318,-2.263 4.318,-4.318 0,-4.107 -4.703,-5.51 -7.341,-3.455 z"
     id="cl-9-8-0" /></g><g
   id="layer1-1-4-8-8"
   transform="matrix(2.5125778,0,0,2.5125778,-11.20333,-27.304844)"><path
     style="fill:#000000"
     inkscape:connector-curvature="0"
     d="m 50.291466,22.698228 c 0,0 2.375,-1.9 2.375,-4.534 0,-1.542 -1.369,-4.102 -4.534,-4.102 -3.165,0 -4.534,2.561 -4.534,4.102 0,2.634 2.375,4.534 2.375,4.534 -2.638,-2.055 -7.341,-0.652 -7.341,3.455 0,2.056 1.68,4.318 4.318,4.318 3.165,0 4.534,-3.455 4.534,-3.455 0,0 0.402,3.938 -1.943,6.046 h 5.182 c -2.345,-2.107 -1.943,-6.046 -1.943,-6.046 0,0 1.369,3.455 4.534,3.455 2.639,0 4.318,-2.263 4.318,-4.318 0,-4.107 -4.703,-5.51 -7.341,-3.455 z"
     id="cl-9-8-9" /></g><g
   id="layer1-1-4-8-0-2"
   transform="matrix(-2.5125778,0,0,-2.5125778,230.7146,269.10142)"><path
     style="fill:#000000"
     inkscape:connector-curvature="0"
     d="m 50.291466,22.698228 c 0,0 2.375,-1.9 2.375,-4.534 0,-1.542 -1.369,-4.102 -4.534,-4.102 -3.165,0 -4.534,2.561 -4.534,4.102 0,2.634 2.375,4.534 2.375,4.534 -2.638,-2.055 -7.341,-0.652 -7.341,3.455 0,2.056 1.68,4.318 4.318,4.318 3.165,0 4.534,-3.455 4.534,-3.455 0,0 0.402,3.938 -1.943,6.046 h 5.182 c -2.345,-2.107 -1.943,-6.046 -1.943,-6.046 0,0 1.369,3.455 4.534,3.455 2.639,0 4.318,-2.263 4.318,-4.318 0,-4.107 -4.703,-5.51 -7.341,-3.455 z"
     id="cl-9-8-6-6" /></g><g
   id="layer1-1-4-8-2-6"
   transform="matrix(2.5125778,0,0,2.5125778,-11.20333,63.195956)"><path
     style="fill:#000000"
     inkscape:connector-curvature="0"
     d="m 50.291466,22.698228 c 0,0 2.375,-1.9 2.375,-4.534 0,-1.542 -1.369,-4.102 -4.534,-4.102 -3.165,0 -4.534,2.561 -4.534,4.102 0,2.634 2.375,4.534 2.375,4.534 -2.638,-2.055 -7.341,-0.652 -7.341,3.455 0,2.056 1.68,4.318 4.318,4.318 3.165,0 4.534,-3.455 4.534,-3.455 0,0 0.402,3.938 -1.943,6.046 h 5.182 c -2.345,-2.107 -1.943,-6.046 -1.943,-6.046 0,0 1.369,3.455 4.534,3.455 2.639,0 4.318,-2.263 4.318,-4.318 0,-4.107 -4.703,-5.51 -7.341,-3.455 z"
     id="cl-9-8-0-4" /></g><g
   id="layer1-1-4-8-6"
   transform="matrix(2.5125778,0,0,2.5125778,-38.055702,18.622356)"><path
     style="fill:#000000"
     inkscape:connector-curvature="0"
     d="m 50.291466,22.698228 c 0,0 2.375,-1.9 2.375,-4.534 0,-1.542 -1.369,-4.102 -4.534,-4.102 -3.165,0 -4.534,2.561 -4.534,4.102 0,2.634 2.375,4.534 2.375,4.534 -2.638,-2.055 -7.341,-0.652 -7.341,3.455 0,2.056 1.68,4.318 4.318,4.318 3.165,0 4.534,-3.455 4.534,-3.455 0,0 0.402,3.938 -1.943,6.046 h 5.182 c -2.345,-2.107 -1.943,-6.046 -1.943,-6.046 0,0 1.369,3.455 4.534,3.455 2.639,0 4.318,-2.263 4.318,-4.318 0,-4.107 -4.703,-5.51 -7.341,-3.455 z"
     id="cl-9-8-8" /></g><g
   id="layer1-1-4-8-6-8"
   transform="matrix(-2.5125778,0,0,-2.5125778,204.43127,226.5922)"><path
     style="fill:#000000"
     inkscape:connector-curvature="0"
     d="m 50.291466,22.698228 c 0,0 2.375,-1.9 2.375,-4.534 0,-1.542 -1.369,-4.102 -4.534,-4.102 -3.165,0 -4.534,2.561 -4.534,4.102 0,2.634 2.375,4.534 2.375,4.534 -2.638,-2.055 -7.341,-0.652 -7.341,3.455 0,2.056 1.68,4.318 4.318,4.318 3.165,0 4.534,-3.455 4.534,-3.455 0,0 0.402,3.938 -1.943,6.046 h 5.182 c -2.345,-2.107 -1.943,-6.046 -1.943,-6.046 0,0 1.369,3.455 4.534,3.455 2.639,0 4.318,-2.263 4.318,-4.318 0,-4.107 -4.703,-5.51 -7.341,-3.455 z"
     id="cl-9-8-8-8" /></g></svg>
