<?xml version="1.0" encoding="UTF-8" standalone="no"?>
<svg
   xmlns:dc="http://purl.org/dc/elements/1.1/"
   xmlns:cc="http://creativecommons.org/ns#"
   xmlns:rdf="http://www.w3.org/1999/02/22-rdf-syntax-ns#"
   xmlns:svg="http://www.w3.org/2000/svg"
   xmlns="http://www.w3.org/2000/svg"
   xmlns:sodipodi="http://sodipodi.sourceforge.net/DTD/sodipodi-0.dtd"
   xmlns:inkscape="http://www.inkscape.org/namespaces/inkscape"
   width="167.0869141pt"
   height="242.6669922pt"
   viewBox="0 0 167.0869141 242.6669922"
   xml:space="preserve"
   id="svg2"
   version="1.1"
   inkscape:version="1.0 (4035a4fb49, 2020-05-01)"
   sodipodi:docname="ace_of_clubs.svg"
   inkscape:export-filename="/home/byron/art/cards/final/PNGs/A_of_clubs.png"
   inkscape:export-xdpi="215.44792"
   inkscape:export-ydpi="215.44792"><metadata
   id="metadata43"><rdf:RDF><cc:Work
       rdf:about=""><dc:format>image/svg+xml</dc:format><dc:type
         rdf:resource="http://purl.org/dc/dcmitype/StillImage" /><dc:title /></cc:Work></rdf:RDF></metadata><defs
   id="defs41"><linearGradient
     id="linearGradient2984"><stop
       style="stop-color:#000000;stop-opacity:1;"
       offset="0"
       id="stop2986" /><stop
       style="stop-color:#000000;stop-opacity:0.65648854;"
       offset="1"
       id="stop2988" /></linearGradient><linearGradient
     id="linearGradient3784"><stop
       style="stop-color:#ffffff;stop-opacity:0.53435117;"
       offset="0"
       id="stop3786" /><stop
       style="stop-color:#000000;stop-opacity:0;"
       offset="1"
       id="stop3788" /></linearGradient><linearGradient
     id="linearGradient3784-4"><stop
       style="stop-color:#ffffff;stop-opacity:0.51908398;"
       offset="0"
       id="stop3786-8" /><stop
       style="stop-color:#000000;stop-opacity:0;"
       offset="1"
       id="stop3788-6" /></linearGradient><linearGradient
     id="linearGradient3784-3"><stop
       style="stop-color:#ffffff;stop-opacity:0.70229006;"
       offset="0"
       id="stop3786-86" /><stop
       style="stop-color:#000000;stop-opacity:0;"
       offset="1"
       id="stop3788-2" /></linearGradient></defs><sodipodi:namedview
   pagecolor="#ffffff"
   bordercolor="#666666"
   borderopacity="1"
   objecttolerance="10"
   gridtolerance="10"
   guidetolerance="10"
   inkscape:pageopacity="0"
   inkscape:pageshadow="2"
   inkscape:window-width="2560"
   inkscape:window-height="1377"
   id="namedview39"
   showgrid="false"
   inkscape:zoom="2.4336873"
   inkscape:cx="188.71531"
   inkscape:cy="148.16686"
   inkscape:window-x="-8"
   inkscape:window-y="-8"
   inkscape:window-maximized="1"
   inkscape:current-layer="svg2"
   inkscape:document-rotation="0" />
	<g
   id="Layer_x0020_1"
   style="fill-rule:nonzero;clip-rule:nonzero;stroke:#000000;stroke-miterlimit:4;">
		<path
   style="fill:#FFFFFF;stroke-width:0.5;"
   d="M166.8369141,235.5478516c0,3.7773438-3.0869141,6.8691406-6.8710938,6.8691406H7.1108398c-3.7749023,0-6.8608398-3.0917969-6.8608398-6.8691406V7.1201172C0.25,3.3427734,3.3359375,0.25,7.1108398,0.25h152.8549805    c3.7841797,0,6.8710938,3.0927734,6.8710938,6.8701172v228.4277344z"
   id="path5" />
		<g
   style="stroke:none;"
   id="g7">
			<g
   id="g9">
				
			</g>
			
		</g>
		<g
   id="g15">
			
		</g>
		<g
   id="g19">
			
		</g>
		<g
   style="stroke:none;"
   id="g23">
			<g
   id="g25">
				
			</g>
			
		</g>
		<g
   style="stroke:none;"
   id="g31">
			<g
   id="g33">
				
			</g>
			
		</g>
	</g>
<g
   aria-label="A"
   id="text3788"
   style="font-style:normal;font-weight:normal;line-height:0%;font-family:'Bitstream Vera Sans';letter-spacing:0px;word-spacing:0px;fill:#000000;fill-opacity:1;stroke:none"><path
     d="M 6.6636705,27.548409 15.460546,4.6421585 h 3.265625 l 9.375,22.9062505 h -3.453125 l -2.671875,-6.9375 h -9.578125 l -2.5156255,6.9375 z m 6.6093755,-9.40625 h 7.765625 l -2.390625,-6.34375 q -1.09375,-2.8906255 -1.625,-4.7500005 -0.4375,2.203125 -1.234375,4.3750005 z"
     style="font-style:normal;font-variant:normal;font-weight:normal;font-stretch:normal;font-size:32px;line-height:1.25;font-family:Arial;-inkscape-font-specification:Arial"
     id="path876" /></g>


<g
   style="fill:#000000;fill-opacity:1"
   transform="matrix(5.9720339,0,0,5.9720339,-203.77663,-22.114186)"
   id="layer1-1"><path
     id="cl"
     d="m 50.291466,22.698228 c 0,0 2.375,-1.9 2.375,-4.534 0,-1.542 -1.369,-4.102 -4.534,-4.102 -3.165,0 -4.534,2.561 -4.534,4.102 0,2.634 2.375,4.534 2.375,4.534 -2.638,-2.055 -7.341,-0.652 -7.341,3.455 0,2.056 1.68,4.318 4.318,4.318 3.165,0 4.534,-3.455 4.534,-3.455 0,0 0.402,3.938 -1.943,6.046 h 5.182 c -2.345,-2.107 -1.943,-6.046 -1.943,-6.046 0,0 1.369,3.455 4.534,3.455 2.639,0 4.318,-2.263 4.318,-4.318 0,-4.107 -4.703,-5.51 -7.341,-3.455 z"
     inkscape:connector-curvature="0"
     style="fill:#000000;fill-opacity:1" /></g><path
   inkscape:connector-curvature="0"
   style="fill:#fffeff;fill-opacity:1;fill-rule:nonzero;stroke:none;stroke-width:0.206146"
   d="M 14.715926,41.667769 V 193.0369 H 152.24751 V 41.667769 Z m 68.91074,20.125002 c 18.901484,0 27.082424,15.290287 27.082424,24.499163 0,15.730336 -14.185417,27.075986 -14.185417,27.075986 15.754227,-12.27253 43.838237,-3.89322 43.838237,20.63393 0,12.27253 -10.02738,25.78757 -25.78758,25.78757 -18.901488,0 -27.075984,-20.63392 -27.075984,-20.63392 0,0 -2.402265,23.52468 11.602152,36.10775 H 68.152833 c 14.004419,-12.58904 11.608596,-36.10775 11.608596,-36.10775 0,0 -8.174501,20.63392 -27.075987,20.63392 -15.754225,0 -25.787577,-13.50907 -25.787577,-25.78757 0,-24.52715 28.08401,-32.90646 43.838235,-20.63393 0,0 -14.185421,-11.34565 -14.185421,-27.075986 0,-9.202904 8.174501,-24.499163 27.075987,-24.499163 z"
   id="rect3015" /><g
   transform="matrix(1.4856506,0,0,1.4856506,-54.024661,10.018072)"
   id="layer1-1-4"><path
     id="cl-9"
     d="m 50.291466,22.698228 c 0,0 2.375,-1.9 2.375,-4.534 0,-1.542 -1.369,-4.102 -4.534,-4.102 -3.165,0 -4.534,2.561 -4.534,4.102 0,2.634 2.375,4.534 2.375,4.534 -2.638,-2.055 -7.341,-0.652 -7.341,3.455 0,2.056 1.68,4.318 4.318,4.318 3.165,0 4.534,-3.455 4.534,-3.455 0,0 0.402,3.938 -1.943,6.046 h 5.182 c -2.345,-2.107 -1.943,-6.046 -1.943,-6.046 0,0 1.369,3.455 4.534,3.455 2.639,0 4.318,-2.263 4.318,-4.318 0,-4.107 -4.703,-5.51 -7.341,-3.455 z"
     inkscape:connector-curvature="0"
     style="fill:#000000" /></g><g
   aria-label="A"
   transform="scale(-1)"
   id="text3788-8"
   style="font-style:normal;font-weight:normal;line-height:0%;font-family:'Bitstream Vera Sans';letter-spacing:0px;word-spacing:0px;fill:#000000;fill-opacity:1;stroke:none"><path
     d="m -160.51083,-214.4666 8.79687,-22.90625 h 3.26563 l 9.375,22.90625 h -3.45313 l -2.67187,-6.9375 h -9.57813 l -2.51562,6.9375 z m 6.60937,-9.40625 h 7.76563 l -2.39063,-6.34375 q -1.09375,-2.89062 -1.625,-4.75 -0.4375,2.20313 -1.23437,4.375 z"
     style="font-style:normal;font-variant:normal;font-weight:normal;font-stretch:normal;font-size:32px;line-height:1.25;font-family:Arial;-inkscape-font-specification:Arial"
     id="path879" /></g>
<g
   transform="matrix(-1.4856506,0,0,-1.4856506,221.19916,232.46182)"
   id="layer1-1-4-1"><path
     id="cl-9-7"
     d="m 50.291466,22.698228 c 0,0 2.375,-1.9 2.375,-4.534 0,-1.542 -1.369,-4.102 -4.534,-4.102 -3.165,0 -4.534,2.561 -4.534,4.102 0,2.634 2.375,4.534 2.375,4.534 -2.638,-2.055 -7.341,-0.652 -7.341,3.455 0,2.056 1.68,4.318 4.318,4.318 3.165,0 4.534,-3.455 4.534,-3.455 0,0 0.402,3.938 -1.943,6.046 h 5.182 c -2.345,-2.107 -1.943,-6.046 -1.943,-6.046 0,0 1.369,3.455 4.534,3.455 2.639,0 4.318,-2.263 4.318,-4.318 0,-4.107 -4.703,-5.51 -7.341,-3.455 z"
     inkscape:connector-curvature="0"
     style="fill:#000000" /></g></svg>
