<?xml version="1.0" encoding="UTF-8" standalone="no"?>
<svg
   xmlns:dc="http://purl.org/dc/elements/1.1/"
   xmlns:cc="http://creativecommons.org/ns#"
   xmlns:rdf="http://www.w3.org/1999/02/22-rdf-syntax-ns#"
   xmlns:svg="http://www.w3.org/2000/svg"
   xmlns="http://www.w3.org/2000/svg"
   xmlns:xlink="http://www.w3.org/1999/xlink"
   xmlns:sodipodi="http://sodipodi.sourceforge.net/DTD/sodipodi-0.dtd"
   xmlns:inkscape="http://www.inkscape.org/namespaces/inkscape"
   inkscape:export-ydpi="215.44792"
   inkscape:export-xdpi="215.44792"
   inkscape:export-filename="/home/byron/art/cards/final/PNGs/10_of_diamonds.png"
   sodipodi:docname="10_of_diamonds.svg"
   inkscape:version="1.0 (4035a4fb49, 2020-05-01)"
   version="1.1"
   id="svg2"
   xml:space="preserve"
   viewBox="0 0 167.0869141 242.6669922"
   height="242.6669922pt"
   width="167.0869141pt"><metadata
   id="metadata43"><rdf:RDF><cc:Work
       rdf:about=""><dc:format>image/svg+xml</dc:format><dc:type
         rdf:resource="http://purl.org/dc/dcmitype/StillImage" /><dc:title /></cc:Work></rdf:RDF></metadata><defs
   id="defs41"><radialGradient
     gradientUnits="userSpaceOnUse"
     gradientTransform="matrix(-1.5842693,-0.02349808,0.03071979,-2.4775745,-0.24856378,-26.713507)"
     r="7.9997029"
     fy="-8.8345356"
     fx="-0.15782039"
     cy="-8.8345356"
     cx="-0.15782039"
     id="radialGradient3781"
     xlink:href="#linearGradient3773"
     inkscape:collect="always" /><linearGradient
     id="linearGradient3773"><stop
       id="stop3775"
       offset="0"
       style="stop-color:#000000;stop-opacity:1;" /><stop
       id="stop3777"
       offset="1"
       style="stop-color:#000000;stop-opacity:0.64885497;" /></linearGradient><radialGradient
     gradientUnits="userSpaceOnUse"
     gradientTransform="matrix(-1.5842693,-0.02349808,0.03071979,-2.4775745,-0.24856378,-26.713507)"
     r="7.9997029"
     fy="-8.8345356"
     fx="-0.15782039"
     cy="-8.8345356"
     cx="-0.15782039"
     id="radialGradient3957"
     xlink:href="#linearGradient3773"
     inkscape:collect="always" /><linearGradient
     id="linearGradient3959"><stop
       id="stop3961"
       offset="0"
       style="stop-color:#000000;stop-opacity:1;" /><stop
       id="stop3963"
       offset="1"
       style="stop-color:#000000;stop-opacity:0.64885497;" /></linearGradient><radialGradient
     inkscape:collect="always"
     xlink:href="#linearGradient3784-4"
     id="radialGradient3975"
     gradientUnits="userSpaceOnUse"
     gradientTransform="matrix(1.2565605,-0.77740644,0.33663816,0.5361257,-221.20213,359.24256)"
     cx="168.02475"
     cy="509.47577"
     fx="168.02475"
     fy="509.47577"
     r="81.902771" /><linearGradient
     id="linearGradient3784-4"><stop
       id="stop3786-8"
       offset="0"
       style="stop-color:#ffffff;stop-opacity:0.4351145;" /><stop
       id="stop3788-6"
       offset="1"
       style="stop-color:#000000;stop-opacity:0;" /></linearGradient><radialGradient
     r="81.902771"
     fy="509.47577"
     fx="168.02475"
     cy="509.47577"
     cx="168.02475"
     gradientTransform="matrix(1.2565605,-0.77740644,0.33663816,0.5361257,-221.20213,359.24256)"
     gradientUnits="userSpaceOnUse"
     id="radialGradient3929"
     xlink:href="#linearGradient3784-4-5"
     inkscape:collect="always" /><linearGradient
     id="linearGradient3784-4-5"><stop
       id="stop3786-8-0"
       offset="0"
       style="stop-color:#ffffff;stop-opacity:0.48854962;" /><stop
       id="stop3788-6-3"
       offset="1"
       style="stop-color:#000000;stop-opacity:0;" /></linearGradient><radialGradient
     r="81.902771"
     fy="509.47577"
     fx="168.02475"
     cy="509.47577"
     cx="168.02475"
     gradientTransform="matrix(1.2565605,-0.77740644,0.33663816,0.5361257,-221.20213,359.24256)"
     gradientUnits="userSpaceOnUse"
     id="radialGradient3927"
     xlink:href="#linearGradient3784-4-1"
     inkscape:collect="always" /><linearGradient
     id="linearGradient3784-4-1"><stop
       id="stop3786-8-03"
       offset="0"
       style="stop-color:#ffffff;stop-opacity:0.23664123;" /><stop
       id="stop3788-6-6"
       offset="1"
       style="stop-color:#000000;stop-opacity:0;" /></linearGradient><linearGradient
     id="linearGradient3768"><stop
       id="stop3770"
       offset="0"
       style="stop-color:#df0000;stop-opacity:1;" /><stop
       id="stop3772"
       offset="1"
       style="stop-color:#df0000;stop-opacity:0.67175573;" /></linearGradient><linearGradient
     id="linearGradient3784-4-6"><stop
       id="stop3786-8-8"
       offset="0"
       style="stop-color:#ffffff;stop-opacity:0.31297711;" /><stop
       id="stop3788-6-8"
       offset="1"
       style="stop-color:#000000;stop-opacity:0;" /></linearGradient><radialGradient
     inkscape:collect="always"
     xlink:href="#linearGradient3784-4-2"
     id="radialGradient4013-8"
     gradientUnits="userSpaceOnUse"
     gradientTransform="matrix(1.0894779,-0.71513803,0.44645273,0.65626582,-244.93331,290.9185)"
     cx="159.35434"
     cy="492.63205"
     fx="159.35434"
     fy="492.63205"
     r="81.902771" /><linearGradient
     id="linearGradient3784-4-2"><stop
       id="stop3786-8-1"
       offset="0"
       style="stop-color:#ffffff;stop-opacity:0.29007635;" /><stop
       id="stop3788-6-5"
       offset="1"
       style="stop-color:#000000;stop-opacity:0;" /></linearGradient><linearGradient
     id="linearGradient2984"><stop
       id="stop2986"
       offset="0"
       style="stop-color:#df0000;stop-opacity:1;" /><stop
       id="stop2988"
       offset="1"
       style="stop-color:#df0000;stop-opacity:0.64122134;" /></linearGradient><linearGradient
     id="linearGradient3784-4-4"><stop
       id="stop3786-8-8-2"
       offset="0"
       style="stop-color:#ffffff;stop-opacity:0.4351145;" /><stop
       id="stop3788-6-1"
       offset="1"
       style="stop-color:#000000;stop-opacity:0;" /></linearGradient><radialGradient
     inkscape:collect="always"
     xlink:href="#linearGradient3784-4-4"
     id="radialGradient3100"
     gradientUnits="userSpaceOnUse"
     gradientTransform="matrix(1.1529891,-0.67391547,0.39482025,0.67549043,-233.63262,270.40076)"
     cx="171.48665"
     cy="511.22299"
     fx="171.48665"
     fy="511.22299"
     r="81.902771" /><radialGradient
     r="8"
     fy="-3.2337365"
     fx="1.6632675e-13"
     cy="-3.2337365"
     cx="1.6632675e-13"
     gradientTransform="matrix(-1.1224159,0.00551393,-0.00908973,-1.8503101,-0.0293938,-10.227695)"
     gradientUnits="userSpaceOnUse"
     id="radialGradient3137"
     xlink:href="#linearGradient2984"
     inkscape:collect="always" /></defs><sodipodi:namedview
   inkscape:document-rotation="0"
   inkscape:current-layer="svg2"
   inkscape:window-maximized="1"
   inkscape:window-y="-8"
   inkscape:window-x="-8"
   inkscape:cy="147.27218"
   inkscape:cx="72.124594"
   inkscape:zoom="1.7208768"
   showgrid="false"
   id="namedview39"
   inkscape:window-height="1377"
   inkscape:window-width="2560"
   inkscape:pageshadow="2"
   inkscape:pageopacity="0"
   guidetolerance="10"
   gridtolerance="10"
   objecttolerance="10"
   borderopacity="1"
   bordercolor="#666666"
   pagecolor="#ffffff" />
	<g
   style="fill-rule:nonzero;clip-rule:nonzero;stroke:#000000;stroke-miterlimit:4;"
   id="Layer_x0020_1">
		<path
   id="path5"
   d="M166.8369141,235.5478516c0,3.7773438-3.0869141,6.8691406-6.8710938,6.8691406H7.1108398c-3.7749023,0-6.8608398-3.0917969-6.8608398-6.8691406V7.1201172C0.25,3.3427734,3.3359375,0.25,7.1108398,0.25h152.8549805    c3.7841797,0,6.8710938,3.0927734,6.8710938,6.8701172v228.4277344z"
   style="fill:#FFFFFF;stroke-width:0.5;" />
		<g
   id="g7"
   style="stroke:none;">
			<g
   id="g9">
				
			</g>
			
		</g>
		<g
   id="g15">
			
		</g>
		<g
   id="g19">
			
		</g>
		<g
   id="g23"
   style="stroke:none;">
			<g
   id="g25">
				
			</g>
			
		</g>
		<g
   id="g31"
   style="stroke:none;">
			<g
   id="g33">
				
			</g>
			
		</g>
	</g>



<g
   style="font-style:normal;font-weight:normal;line-height:0%;font-family:'Bitstream Vera Sans';letter-spacing:0px;word-spacing:0px;fill:#df0000;fill-opacity:1;stroke:none"
   id="text3788"
   aria-label="1"><path
     id="path909"
     style="font-style:normal;font-variant:normal;font-weight:normal;font-stretch:normal;font-size:32px;line-height:1.25;font-family:Arial;-inkscape-font-specification:Arial;fill:#df0000;fill-opacity:1"
     d="M 12.329473,26.413288 H 9.5169726 V 8.4914131 q -1.015625,0.96875 -2.671875,1.9374999 -1.640625,0.96875 -2.953125,1.453125 V 9.1632881 q 2.359375,-1.109375 4.125,-2.6875 1.765625,-1.578125 2.5000004,-3.0625 h 1.8125 z" /></g>























<g
   id="layer1-2-6"
   transform="matrix(1.4769065,0,0,1.4769065,16.968095,44.236162)"><path
     sodipodi:nodetypes="ccccccccc"
     d="M 3.2433274,-4.7253274 C 1.1263274,-7.5893274 0,-10.5 0,-10.5 c 0,0 -1.1263274,2.9106726 -3.2433274,5.7746726 C -5.3613274,-1.8623274 -8,0 -8,0 -8,0 -5.3613274,1.8613274 -3.2433274,4.7263274 -1.1263274,7.5893274 0,10.5 0,10.5 0,10.5 1.1263274,7.5893274 3.2433274,4.7263274 5.3613274,1.8613274 8,0 8,0 8,0 5.3613274,-1.8623274 3.2433274,-4.7253274 z"
     id="dl-6"
     inkscape:connector-curvature="0"
     style="fill:#df0000" /></g><g
   id="layer1-2-6-4"
   transform="matrix(1.4769065,0,0,1.4769065,150.62089,198.50346)"><path
     sodipodi:nodetypes="ccccccccc"
     d="M 3.2433274,-4.7253274 C 1.1263274,-7.5893274 0,-10.5 0,-10.5 c 0,0 -1.1263274,2.9106726 -3.2433274,5.7746726 C -5.3613274,-1.8623274 -8,0 -8,0 -8,0 -5.3613274,1.8613274 -3.2433274,4.7263274 -1.1263274,7.5893274 0,10.5 0,10.5 0,10.5 1.1263274,7.5893274 3.2433274,4.7263274 5.3613274,1.8613274 8,0 8,0 8,0 5.3613274,-1.8623274 3.2433274,-4.7253274 z"
     id="dl-6-9"
     inkscape:connector-curvature="0"
     style="fill:#df0000" /></g><g
   id="layer1-2-6-8-8"
   transform="matrix(2.5882908,0,0,2.5882908,54.128726,210.91474)"><path
     sodipodi:nodetypes="ccccccccc"
     d="M 3.2433274,-4.7253274 C 1.1263274,-7.5893274 0,-10.5 0,-10.5 c 0,0 -1.1263274,2.9106726 -3.2433274,5.7746726 C -5.3613274,-1.8623274 -8,0 -8,0 -8,0 -5.3613274,1.8613274 -3.2433274,4.7263274 -1.1263274,7.5893274 0,10.5 0,10.5 0,10.5 1.1263274,7.5893274 3.2433274,4.7263274 5.3613274,1.8613274 8,0 8,0 8,0 5.3613274,-1.8623274 3.2433274,-4.7253274 z"
     id="dl-6-8-8"
     inkscape:connector-curvature="0"
     style="fill:#df0000" /></g><g
   id="layer1-2-6-8-2-4"
   transform="matrix(2.5882908,0,0,2.5882908,54.128726,31.619539)"><path
     sodipodi:nodetypes="ccccccccc"
     d="M 3.2433274,-4.7253274 C 1.1263274,-7.5893274 0,-10.5 0,-10.5 c 0,0 -1.1263274,2.9106726 -3.2433274,5.7746726 C -5.3613274,-1.8623274 -8,0 -8,0 -8,0 -5.3613274,1.8613274 -3.2433274,4.7263274 -1.1263274,7.5893274 0,10.5 0,10.5 0,10.5 1.1263274,7.5893274 3.2433274,4.7263274 5.3613274,1.8613274 8,0 8,0 8,0 5.3613274,-1.8623274 3.2433274,-4.7253274 z"
     id="dl-6-8-6-3"
     inkscape:connector-curvature="0"
     style="fill:#df0000" /></g><g
   id="layer1-2-6-8-2-8-1"
   transform="matrix(2.5882908,0,0,2.5882908,54.128726,151.18274)"><path
     sodipodi:nodetypes="ccccccccc"
     d="M 3.2433274,-4.7253274 C 1.1263274,-7.5893274 0,-10.5 0,-10.5 c 0,0 -1.1263274,2.9106726 -3.2433274,5.7746726 C -5.3613274,-1.8623274 -8,0 -8,0 -8,0 -5.3613274,1.8613274 -3.2433274,4.7263274 -1.1263274,7.5893274 0,10.5 0,10.5 0,10.5 1.1263274,7.5893274 3.2433274,4.7263274 5.3613274,1.8613274 8,0 8,0 8,0 5.3613274,-1.8623274 3.2433274,-4.7253274 z"
     id="dl-6-8-6-8-4"
     inkscape:connector-curvature="0"
     style="fill:#df0000" /></g><g
   id="layer1-2-6-8-2-8-1-4"
   transform="matrix(2.5882908,0,0,2.5882908,54.128726,91.351539)"><path
     sodipodi:nodetypes="ccccccccc"
     d="M 3.2433274,-4.7253274 C 1.1263274,-7.5893274 0,-10.5 0,-10.5 c 0,0 -1.1263274,2.9106726 -3.2433274,5.7746726 C -5.3613274,-1.8623274 -8,0 -8,0 -8,0 -5.3613274,1.8613274 -3.2433274,4.7263274 -1.1263274,7.5893274 0,10.5 0,10.5 0,10.5 1.1263274,7.5893274 3.2433274,4.7263274 5.3613274,1.8613274 8,0 8,0 8,0 5.3613274,-1.8623274 3.2433274,-4.7253274 z"
     id="dl-6-8-6-8-4-9"
     inkscape:connector-curvature="0"
     style="fill:#df0000" /></g><g
   id="layer1-2-6-8-8-9"
   transform="matrix(2.5882908,0,0,2.5882908,112.89593,210.91474)"><path
     sodipodi:nodetypes="ccccccccc"
     d="M 3.2433274,-4.7253274 C 1.1263274,-7.5893274 0,-10.5 0,-10.5 c 0,0 -1.1263274,2.9106726 -3.2433274,5.7746726 C -5.3613274,-1.8623274 -8,0 -8,0 -8,0 -5.3613274,1.8613274 -3.2433274,4.7263274 -1.1263274,7.5893274 0,10.5 0,10.5 0,10.5 1.1263274,7.5893274 3.2433274,4.7263274 5.3613274,1.8613274 8,0 8,0 8,0 5.3613274,-1.8623274 3.2433274,-4.7253274 z"
     id="dl-6-8-8-4"
     inkscape:connector-curvature="0"
     style="fill:#df0000" /></g><g
   id="layer1-2-6-8-2-4-9"
   transform="matrix(2.5882908,0,0,2.5882908,112.89593,31.619552)"><path
     sodipodi:nodetypes="ccccccccc"
     d="M 3.2433274,-4.7253274 C 1.1263274,-7.5893274 0,-10.5 0,-10.5 c 0,0 -1.1263274,2.9106726 -3.2433274,5.7746726 C -5.3613274,-1.8623274 -8,0 -8,0 -8,0 -5.3613274,1.8613274 -3.2433274,4.7263274 -1.1263274,7.5893274 0,10.5 0,10.5 0,10.5 1.1263274,7.5893274 3.2433274,4.7263274 5.3613274,1.8613274 8,0 8,0 8,0 5.3613274,-1.8623274 3.2433274,-4.7253274 z"
     id="dl-6-8-6-3-0"
     inkscape:connector-curvature="0"
     style="fill:#df0000" /></g><g
   id="layer1-2-6-8-2-8-1-9"
   transform="matrix(2.5882908,0,0,2.5882908,112.89593,151.18274)"><path
     sodipodi:nodetypes="ccccccccc"
     d="M 3.2433274,-4.7253274 C 1.1263274,-7.5893274 0,-10.5 0,-10.5 c 0,0 -1.1263274,2.9106726 -3.2433274,5.7746726 C -5.3613274,-1.8623274 -8,0 -8,0 -8,0 -5.3613274,1.8613274 -3.2433274,4.7263274 -1.1263274,7.5893274 0,10.5 0,10.5 0,10.5 1.1263274,7.5893274 3.2433274,4.7263274 5.3613274,1.8613274 8,0 8,0 8,0 5.3613274,-1.8623274 3.2433274,-4.7253274 z"
     id="dl-6-8-6-8-4-1"
     inkscape:connector-curvature="0"
     style="fill:#df0000" /></g><g
   id="layer1-2-6-8-2-8-1-4-7"
   transform="matrix(2.5882908,0,0,2.5882908,112.89593,91.351542)"><path
     sodipodi:nodetypes="ccccccccc"
     d="M 3.2433274,-4.7253274 C 1.1263274,-7.5893274 0,-10.5 0,-10.5 c 0,0 -1.1263274,2.9106726 -3.2433274,5.7746726 C -5.3613274,-1.8623274 -8,0 -8,0 -8,0 -5.3613274,1.8613274 -3.2433274,4.7263274 -1.1263274,7.5893274 0,10.5 0,10.5 0,10.5 1.1263274,7.5893274 3.2433274,4.7263274 5.3613274,1.8613274 8,0 8,0 8,0 5.3613274,-1.8623274 3.2433274,-4.7253274 z"
     id="dl-6-8-6-8-4-9-7"
     inkscape:connector-curvature="0"
     style="fill:#df0000" /></g><g
   id="layer1-2-6-8-2-4-8"
   transform="matrix(2.5882908,0,0,2.5882908,83.213394,61.828949)"><path
     sodipodi:nodetypes="ccccccccc"
     d="M 3.2433274,-4.7253274 C 1.1263274,-7.5893274 0,-10.5 0,-10.5 c 0,0 -1.1263274,2.9106726 -3.2433274,5.7746726 C -5.3613274,-1.8623274 -8,0 -8,0 -8,0 -5.3613274,1.8613274 -3.2433274,4.7263274 -1.1263274,7.5893274 0,10.5 0,10.5 0,10.5 1.1263274,7.5893274 3.2433274,4.7263274 5.3613274,1.8613274 8,0 8,0 8,0 5.3613274,-1.8623274 3.2433274,-4.7253274 z"
     id="dl-6-8-6-3-5"
     inkscape:connector-curvature="0"
     style="fill:#df0000" /></g><g
   id="layer1-2-6-8-2-4-8-8"
   transform="matrix(2.5882908,0,0,2.5882908,83.008034,180.83805)"><path
     sodipodi:nodetypes="ccccccccc"
     d="M 3.2433274,-4.7253274 C 1.1263274,-7.5893274 0,-10.5 0,-10.5 c 0,0 -1.1263274,2.9106726 -3.2433274,5.7746726 C -5.3613274,-1.8623274 -8,0 -8,0 -8,0 -5.3613274,1.8613274 -3.2433274,4.7263274 -1.1263274,7.5893274 0,10.5 0,10.5 0,10.5 1.1263274,7.5893274 3.2433274,4.7263274 5.3613274,1.8613274 8,0 8,0 8,0 5.3613274,-1.8623274 3.2433274,-4.7253274 z"
     id="dl-6-8-6-3-5-8"
     inkscape:connector-curvature="0"
     style="fill:#df0000" /></g><g
   style="font-style:normal;font-weight:normal;line-height:0%;font-family:'Bitstream Vera Sans';letter-spacing:0px;word-spacing:0px;fill:#df0000;fill-opacity:1;stroke:none"
   id="text3788-43"
   aria-label="0"><path
     id="path912"
     style="font-style:normal;font-variant:normal;font-weight:normal;font-stretch:normal;font-size:32px;line-height:1.25;font-family:Arial;-inkscape-font-specification:Arial;fill:#df0000;fill-opacity:1"
     d="m 14.544567,15.079262 q 0,-4.0625 0.828125,-6.5312502 0.84375,-2.484375 2.484375,-3.828125 1.65625,-1.34375 4.15625,-1.34375 1.84375,0 3.234375,0.75 1.390625,0.734375 2.296875,2.140625 0.90625,1.390625 1.421875,3.40625 0.515625,2.0000002 0.515625,5.4062502 0,4.03125 -0.828125,6.515625 -0.828125,2.46875 -2.484375,3.828125 -1.640625,1.34375 -4.15625,1.34375 -3.3125,0 -5.203125,-2.375 -2.265625,-2.859375 -2.265625,-9.3125 z m 2.890625,0 q 0,5.640625 1.3125,7.515625 1.328125,1.859375 3.265625,1.859375 1.9375,0 3.25,-1.875 1.328125,-1.875 1.328125,-7.5 0,-5.6562502 -1.328125,-7.5156252 -1.3125,-1.859375 -3.28125,-1.859375 -1.9375,0 -3.09375,1.640625 -1.453125,2.09375 -1.453125,7.7343752 z" /></g>
<g
   style="font-style:normal;font-weight:normal;line-height:0%;font-family:'Bitstream Vera Sans';letter-spacing:0px;word-spacing:0px;fill:#df0000;fill-opacity:1;stroke:none"
   id="text3788-4"
   transform="scale(-1)"
   aria-label="1"><path
     id="path918"
     style="font-style:normal;font-variant:normal;font-weight:normal;font-stretch:normal;font-size:32px;line-height:1.25;font-family:Arial;-inkscape-font-specification:Arial;fill:#df0000;fill-opacity:1"
     d="m -154.51357,-215.98416 h -2.8125 v -17.92188 q -1.01562,0.96875 -2.67187,1.9375 -1.64063,0.96875 -2.95313,1.45313 v -2.71875 q 2.35938,-1.10938 4.125,-2.6875 1.76563,-1.57813 2.5,-3.0625 h 1.8125 z" /></g>
<g
   style="font-style:normal;font-weight:normal;line-height:0%;font-family:'Bitstream Vera Sans';letter-spacing:0px;word-spacing:0px;fill:#df0000;fill-opacity:1;stroke:none"
   id="text3788-43-2"
   transform="scale(-1)"
   aria-label="0"><path
     id="path915"
     style="font-style:normal;font-variant:normal;font-weight:normal;font-stretch:normal;font-size:32px;line-height:1.25;font-family:Arial;-inkscape-font-specification:Arial;fill:#df0000;fill-opacity:1"
     d="m -152.29846,-227.31818 q 0,-4.0625 0.82812,-6.53125 0.84375,-2.48437 2.48438,-3.82812 1.65625,-1.34375 4.15625,-1.34375 1.84375,0 3.23437,0.75 1.39063,0.73437 2.29688,2.14062 0.90625,1.39063 1.42187,3.40625 0.51563,2 0.51563,5.40625 0,4.03125 -0.82813,6.51563 -0.82812,2.46875 -2.48437,3.82812 -1.64063,1.34375 -4.15625,1.34375 -3.3125,0 -5.20313,-2.375 -2.26562,-2.85937 -2.26562,-9.3125 z m 2.89062,0 q 0,5.64063 1.3125,7.51563 1.32813,1.85937 3.26563,1.85937 1.9375,0 3.25,-1.875 1.32812,-1.875 1.32812,-7.5 0,-5.65625 -1.32812,-7.51562 -1.3125,-1.85938 -3.28125,-1.85938 -1.9375,0 -3.09375,1.64063 -1.45313,2.09375 -1.45313,7.73437 z" /></g>
</svg>
