<?xml version="1.0" encoding="UTF-8" standalone="no"?>
<svg
   xmlns:dc="http://purl.org/dc/elements/1.1/"
   xmlns:cc="http://creativecommons.org/ns#"
   xmlns:rdf="http://www.w3.org/1999/02/22-rdf-syntax-ns#"
   xmlns:svg="http://www.w3.org/2000/svg"
   xmlns="http://www.w3.org/2000/svg"
   xmlns:sodipodi="http://sodipodi.sourceforge.net/DTD/sodipodi-0.dtd"
   xmlns:inkscape="http://www.inkscape.org/namespaces/inkscape"
   inkscape:export-ydpi="215.44792"
   inkscape:export-xdpi="215.44792"
   inkscape:export-filename="/home/byron/art/cards/final/PNGs/3_of_spades.png"
   sodipodi:docname="3_of_spades.svg"
   inkscape:version="1.0 (4035a4fb49, 2020-05-01)"
   version="1.1"
   id="svg2"
   xml:space="preserve"
   viewBox="0 0 167.0869141 242.6669922"
   height="242.6669922pt"
   width="167.0869141pt"><metadata
   id="metadata43"><rdf:RDF><cc:Work
       rdf:about=""><dc:format>image/svg+xml</dc:format><dc:type
         rdf:resource="http://purl.org/dc/dcmitype/StillImage" /><dc:title /></cc:Work></rdf:RDF></metadata><defs
   id="defs41" /><sodipodi:namedview
   inkscape:document-rotation="0"
   inkscape:current-layer="svg2"
   inkscape:window-maximized="1"
   inkscape:window-y="-8"
   inkscape:window-x="-8"
   inkscape:cy="157.08206"
   inkscape:cx="106.02254"
   inkscape:zoom="2.4336873"
   showgrid="false"
   id="namedview39"
   inkscape:window-height="1377"
   inkscape:window-width="2560"
   inkscape:pageshadow="2"
   inkscape:pageopacity="0"
   guidetolerance="10"
   gridtolerance="10"
   objecttolerance="10"
   borderopacity="1"
   bordercolor="#666666"
   pagecolor="#ffffff" />
	<g
   style="fill-rule:nonzero;clip-rule:nonzero;stroke:#000000;stroke-miterlimit:4;"
   id="Layer_x0020_1">
		<path
   id="path5"
   d="M166.8369141,235.5478516c0,3.7773438-3.0869141,6.8691406-6.8710938,6.8691406H7.1108398c-3.7749023,0-6.8608398-3.0917969-6.8608398-6.8691406V7.1201172C0.25,3.3427734,3.3359375,0.25,7.1108398,0.25h152.8549805    c3.7841797,0,6.8710938,3.0927734,6.8710938,6.8701172v228.4277344z"
   style="fill:#FFFFFF;stroke-width:0.5;" />
		<g
   id="g7"
   style="stroke:none;">
			<g
   id="g9">
				
			</g>
			
		</g>
		<g
   id="g15">
			
		</g>
		<g
   id="g19">
			
		</g>
		<g
   id="g23"
   style="stroke:none;">
			<g
   id="g25">
				
			</g>
			
		</g>
		<g
   id="g31"
   style="stroke:none;">
			<g
   id="g33">
				
			</g>
			
		</g>
	</g>
<g
   style="font-style:normal;font-weight:normal;line-height:0%;font-family:'Bitstream Vera Sans';letter-spacing:0px;word-spacing:0px;fill:#000000;fill-opacity:1;stroke:none"
   id="text3788"
   aria-label="3"><path
     id="path853"
     style="font-style:normal;font-variant:normal;font-weight:normal;font-stretch:normal;font-size:32px;line-height:1.25;font-family:Arial;-inkscape-font-specification:Arial"
     d="m 9.8904514,21.966413 2.8124996,-0.375 q 0.484375,2.390625 1.640625,3.453125 1.171875,1.046875 2.84375,1.046875 1.984375,0 3.34375,-1.375 1.375,-1.375 1.375,-3.40625 0,-1.9375 -1.265625,-3.1875 -1.265625,-1.265625 -3.21875,-1.265625 -0.796875,0 -1.984375,0.3125 l 0.3125,-2.46875 q 0.28125,0.03125 0.453125,0.03125 1.796875,0 3.234375,-0.9375 1.4375,-0.9375 1.4375,-2.890625 0,-1.5468745 -1.046875,-2.5624995 -1.046875,-1.015625 -2.703125,-1.015625 -1.640625,0 -2.734375,1.03125 -1.09375,1.03125 -1.40625,3.0937495 l -2.8125,-0.5 q 0.515625,-2.8281245 2.34375,-4.3749995 1.828125,-1.5625 4.546875,-1.5625 1.875,0 3.453125,0.8125 1.578125,0.796875 2.40625,2.1875 0.84375,1.390625 0.84375,2.9531245 0,1.484375 -0.796875,2.703125 -0.796875,1.21875 -2.359375,1.9375 2.03125,0.46875 3.15625,1.953125 1.125,1.46875 1.125,3.6875 0,3 -2.1875,5.09375 -2.1875,2.078125 -5.53125,2.078125 -3.015625,0 -5.015625,-1.796875 -1.984375,-1.796875 -2.2656246,-4.65625 z" /></g>


<g
   id="layer1-7"
   transform="matrix(1.5085945,0,0,1.3793253,16.929104,45.065897)"><path
     sodipodi:nodetypes="cccccccccc"
     style="fill:#000000"
     inkscape:connector-curvature="0"
     d="M 7.989,3.103 C 7.747,-0.954 0.242,-8.59 0,-10.5 c -0.242,1.909 -7.747,9.545 -7.989,13.603 -0.169,2.868 1.695,4.057 3.39,4.057 1.8351685,-0.021581 3.3508701,-2.8006944 3.873,-3.341 0.242,0.716 -1.603,6.682 -2.179,6.682 l 5.811,0 C 2.33,10.501 0.485,4.535 0.727,3.819 1.1841472,4.3152961 2.5241276,7.0768295 4.601,7.16 6.295,7.159 8.158,5.971 7.989,3.103 z"
     id="sl" /></g>
<g
   id="layer1-7-88"
   transform="matrix(2.6486789,0,0,2.4217176,83.41089,49.365995)"><path
     sodipodi:nodetypes="cccccccccc"
     style="fill:#000000"
     inkscape:connector-curvature="0"
     d="M 7.989,3.103 C 7.747,-0.954 0.242,-8.59 0,-10.5 c -0.242,1.909 -7.747,9.545 -7.989,13.603 -0.169,2.868 1.695,4.057 3.39,4.057 1.8351685,-0.021581 3.3508701,-2.8006944 3.873,-3.341 0.242,0.716 -1.603,6.682 -2.179,6.682 l 5.811,0 C 2.33,10.501 0.485,4.535 0.727,3.819 1.1841472,4.3152961 2.5241276,7.0768295 4.601,7.16 6.295,7.159 8.158,5.971 7.989,3.103 z"
     id="sl-4" /></g><g
   style="font-style:normal;font-weight:normal;line-height:0%;font-family:'Bitstream Vera Sans';letter-spacing:0px;word-spacing:0px;fill:#000000;fill-opacity:1;stroke:none"
   id="text3788-7"
   transform="scale(-1)"
   aria-label="3"><path
     id="path856"
     style="font-style:normal;font-variant:normal;font-weight:normal;font-stretch:normal;font-size:32px;line-height:1.25;font-family:Arial;-inkscape-font-specification:Arial"
     d="m -157.634,-221.1709 2.8125,-0.375 q 0.48437,2.39063 1.64062,3.45313 1.17188,1.04687 2.84375,1.04687 1.98438,0 3.34375,-1.375 1.375,-1.375 1.375,-3.40625 0,-1.9375 -1.26562,-3.1875 -1.26563,-1.26562 -3.21875,-1.26562 -0.79688,0 -1.98438,0.3125 l 0.3125,-2.46875 q 0.28125,0.0312 0.45313,0.0312 1.79687,0 3.23437,-0.9375 1.4375,-0.9375 1.4375,-2.89063 0,-1.54687 -1.04687,-2.5625 -1.04688,-1.01562 -2.70313,-1.01562 -1.64062,0 -2.73437,1.03125 -1.09375,1.03125 -1.40625,3.09375 l -2.8125,-0.5 q 0.51562,-2.82813 2.34375,-4.375 1.82812,-1.5625 4.54687,-1.5625 1.875,0 3.45313,0.8125 1.57812,0.79687 2.40625,2.1875 0.84375,1.39062 0.84375,2.95312 0,1.48438 -0.79688,2.70313 -0.79687,1.21875 -2.35937,1.9375 2.03125,0.46875 3.15625,1.95312 1.125,1.46875 1.125,3.6875 0,3 -2.1875,5.09375 -2.1875,2.07813 -5.53125,2.07813 -3.01563,0 -5.01563,-1.79688 -1.98437,-1.79687 -2.26562,-4.65625 z" /></g>

<g
   id="layer1-7-3"
   transform="matrix(-1.5085945,0,0,-1.3793253,150.22511,198.04408)"><path
     sodipodi:nodetypes="cccccccccc"
     style="fill:#000000"
     inkscape:connector-curvature="0"
     d="M 7.989,3.103 C 7.747,-0.954 0.242,-8.59 0,-10.5 c -0.242,1.909 -7.747,9.545 -7.989,13.603 -0.169,2.868 1.695,4.057 3.39,4.057 1.8351685,-0.021581 3.3508701,-2.8006944 3.873,-3.341 0.242,0.716 -1.603,6.682 -2.179,6.682 l 5.811,0 C 2.33,10.501 0.485,4.535 0.727,3.819 1.1841472,4.3152961 2.5241276,7.0768295 4.601,7.16 6.295,7.159 8.158,5.971 7.989,3.103 z"
     id="sl-1" /></g><g
   id="layer1-7-88-7"
   transform="matrix(-2.6486789,0,0,-2.4217176,83.45613,193.77132)"><path
     sodipodi:nodetypes="cccccccccc"
     style="fill:#000000"
     inkscape:connector-curvature="0"
     d="M 7.989,3.103 C 7.747,-0.954 0.242,-8.59 0,-10.5 c -0.242,1.909 -7.747,9.545 -7.989,13.603 -0.169,2.868 1.695,4.057 3.39,4.057 1.8351685,-0.021581 3.3508701,-2.8006944 3.873,-3.341 0.242,0.716 -1.603,6.682 -2.179,6.682 l 5.811,0 C 2.33,10.501 0.485,4.535 0.727,3.819 1.1841472,4.3152961 2.5241276,7.0768295 4.601,7.16 6.295,7.159 8.158,5.971 7.989,3.103 z"
     id="sl-4-5" /></g><g
   id="layer1-7-88-6"
   transform="matrix(2.6486789,0,0,2.4217176,83.494697,119.06732)"><path
     sodipodi:nodetypes="cccccccccc"
     style="fill:#000000"
     inkscape:connector-curvature="0"
     d="M 7.989,3.103 C 7.747,-0.954 0.242,-8.59 0,-10.5 c -0.242,1.909 -7.747,9.545 -7.989,13.603 -0.169,2.868 1.695,4.057 3.39,4.057 1.8351685,-0.021581 3.3508701,-2.8006944 3.873,-3.341 0.242,0.716 -1.603,6.682 -2.179,6.682 l 5.811,0 C 2.33,10.501 0.485,4.535 0.727,3.819 1.1841472,4.3152961 2.5241276,7.0768295 4.601,7.16 6.295,7.159 8.158,5.971 7.989,3.103 z"
     id="sl-4-8" /></g></svg>
