<?xml version="1.0" encoding="UTF-8" standalone="no"?>
<svg
   xmlns:dc="http://purl.org/dc/elements/1.1/"
   xmlns:cc="http://creativecommons.org/ns#"
   xmlns:rdf="http://www.w3.org/1999/02/22-rdf-syntax-ns#"
   xmlns:svg="http://www.w3.org/2000/svg"
   xmlns="http://www.w3.org/2000/svg"
   xmlns:xlink="http://www.w3.org/1999/xlink"
   xmlns:sodipodi="http://sodipodi.sourceforge.net/DTD/sodipodi-0.dtd"
   xmlns:inkscape="http://www.inkscape.org/namespaces/inkscape"
   inkscape:export-ydpi="215.44792"
   inkscape:export-xdpi="215.44792"
   inkscape:export-filename="/home/byron/art/cards/final/PNGs/5_of_clubs.png"
   sodipodi:docname="5_of_clubs.svg"
   inkscape:version="1.0 (4035a4fb49, 2020-05-01)"
   version="1.1"
   id="svg2"
   xml:space="preserve"
   viewBox="0 0 167.0869141 242.6669922"
   height="242.6669922pt"
   width="167.0869141pt"><metadata
   id="metadata43"><rdf:RDF><cc:Work
       rdf:about=""><dc:format>image/svg+xml</dc:format><dc:type
         rdf:resource="http://purl.org/dc/dcmitype/StillImage" /><dc:title /></cc:Work></rdf:RDF></metadata><defs
   id="defs41"><radialGradient
     gradientTransform="matrix(-1.5605256,0.01828294,-0.02684055,-2.2909528,123.98377,58.809108)"
     gradientUnits="userSpaceOnUse"
     r="9.5"
     fy="18.137882"
     fx="48.231091"
     cy="18.137882"
     cx="48.231091"
     id="radialGradient3760"
     xlink:href="#linearGradient2984"
     inkscape:collect="always" /><linearGradient
     id="linearGradient2984"><stop
       id="stop2986"
       offset="0"
       style="stop-color:#000000;stop-opacity:1;" /><stop
       id="stop2988"
       offset="1"
       style="stop-color:#000000;stop-opacity:0.65648854;" /></linearGradient><radialGradient
     gradientUnits="userSpaceOnUse"
     gradientTransform="matrix(1.1529891,-0.67391547,0.39482025,0.67549043,-233.63262,270.40076)"
     r="81.902771"
     fy="511.22299"
     fx="171.48665"
     cy="511.22299"
     cx="171.48665"
     id="radialGradient3792"
     xlink:href="#linearGradient3784"
     inkscape:collect="always" /><linearGradient
     id="linearGradient3784"><stop
       id="stop3786"
       offset="0"
       style="stop-color:#ffffff;stop-opacity:0.53435117;" /><stop
       id="stop3788"
       offset="1"
       style="stop-color:#000000;stop-opacity:0;" /></linearGradient><radialGradient
     inkscape:collect="always"
     xlink:href="#linearGradient3784-4"
     id="radialGradient3855"
     gradientUnits="userSpaceOnUse"
     gradientTransform="matrix(1.1529891,-0.67391547,0.39482025,0.67549043,-233.63262,270.40076)"
     cx="171.48665"
     cy="511.22299"
     fx="171.48665"
     fy="511.22299"
     r="81.902771" /><linearGradient
     id="linearGradient3784-4"><stop
       id="stop3786-8"
       offset="0"
       style="stop-color:#ffffff;stop-opacity:0.51908398;" /><stop
       id="stop3788-6"
       offset="1"
       style="stop-color:#000000;stop-opacity:0;" /></linearGradient><radialGradient
     inkscape:collect="always"
     xlink:href="#linearGradient3784-3"
     id="radialGradient3916"
     gradientUnits="userSpaceOnUse"
     gradientTransform="matrix(1.1529891,-0.67391547,0.39482025,0.67549043,-233.63262,270.40076)"
     cx="181.69392"
     cy="461.84113"
     fx="181.69392"
     fy="461.84113"
     r="81.902771" /><linearGradient
     id="linearGradient3784-3"><stop
       id="stop3786-86"
       offset="0"
       style="stop-color:#ffffff;stop-opacity:0.70229006;" /><stop
       id="stop3788-2"
       offset="1"
       style="stop-color:#000000;stop-opacity:0;" /></linearGradient></defs><sodipodi:namedview
   inkscape:document-rotation="0"
   inkscape:current-layer="svg2"
   inkscape:window-maximized="1"
   inkscape:window-y="-8"
   inkscape:window-x="-8"
   inkscape:cy="148.16686"
   inkscape:cx="117.62976"
   inkscape:zoom="2.4336873"
   showgrid="false"
   id="namedview39"
   inkscape:window-height="1377"
   inkscape:window-width="2560"
   inkscape:pageshadow="2"
   inkscape:pageopacity="0"
   guidetolerance="10"
   gridtolerance="10"
   objecttolerance="10"
   borderopacity="1"
   bordercolor="#666666"
   pagecolor="#ffffff" />
	<g
   style="fill-rule:nonzero;clip-rule:nonzero;stroke:#000000;stroke-miterlimit:4;"
   id="Layer_x0020_1">
		<path
   id="path5"
   d="M166.8369141,235.5478516c0,3.7773438-3.0869141,6.8691406-6.8710938,6.8691406H7.1108398c-3.7749023,0-6.8608398-3.0917969-6.8608398-6.8691406V7.1201172C0.25,3.3427734,3.3359375,0.25,7.1108398,0.25h152.8549805    c3.7841797,0,6.8710938,3.0927734,6.8710938,6.8701172v228.4277344z"
   style="fill:#FFFFFF;stroke-width:0.5;" />
		<g
   id="g7"
   style="stroke:none;">
			<g
   id="g9">
				
			</g>
			
		</g>
		<g
   id="g15">
			
		</g>
		<g
   id="g19">
			
		</g>
		<g
   id="g23"
   style="stroke:none;">
			<g
   id="g25">
				
			</g>
			
		</g>
		<g
   id="g31"
   style="stroke:none;">
			<g
   id="g33">
				
			</g>
			
		</g>
	</g>
<g
   style="font-style:normal;font-weight:normal;line-height:0%;font-family:'Bitstream Vera Sans';letter-spacing:0px;word-spacing:0px;fill:#000000;fill-opacity:1;stroke:none"
   id="text3788"
   aria-label="5"><path
     id="path873"
     style="font-style:normal;font-variant:normal;font-weight:normal;font-stretch:normal;font-size:32px;line-height:1.25;font-family:Arial;-inkscape-font-specification:Arial"
     d="m 9.6386709,21.548409 2.9531251,-0.25 q 0.328125,2.15625 1.515625,3.25 1.203125,1.078125 2.890625,1.078125 2.03125,0 3.4375,-1.53125 1.40625,-1.53125 1.40625,-4.0625 0,-2.40625 -1.359375,-3.796875 -1.34375,-1.390625 -3.53125,-1.390625 -1.359375,0 -2.453125,0.625 -1.09375,0.609375 -1.71875,1.59375 l -2.640625,-0.34375 2.21875,-11.7656255 h 11.390625 v 2.6875 h -9.140625 l -1.234375,6.1562505 q 2.0625,-1.4375 4.328125,-1.4375 3,0 5.0625,2.078125 2.0625,2.078125 2.0625,5.34375 0,3.109375 -1.8125,5.375 -2.203125,2.78125 -6.015625,2.78125 -3.125,0 -5.109375,-1.75 -1.9687501,-1.75 -2.2500001,-4.640625 z" /></g>







<g
   id="layer1-1-4"
   transform="matrix(1.4856506,0,0,1.4856506,-54.024661,10.018072)"><path
     style="fill:#000000"
     inkscape:connector-curvature="0"
     d="m 50.291466,22.698228 c 0,0 2.375,-1.9 2.375,-4.534 0,-1.542 -1.369,-4.102 -4.534,-4.102 -3.165,0 -4.534,2.561 -4.534,4.102 0,2.634 2.375,4.534 2.375,4.534 -2.638,-2.055 -7.341,-0.652 -7.341,3.455 0,2.056 1.68,4.318 4.318,4.318 3.165,0 4.534,-3.455 4.534,-3.455 0,0 0.402,3.938 -1.943,6.046 h 5.182 c -2.345,-2.107 -1.943,-6.046 -1.943,-6.046 0,0 1.369,3.455 4.534,3.455 2.639,0 4.318,-2.263 4.318,-4.318 0,-4.107 -4.703,-5.51 -7.341,-3.455 z"
     id="cl-9" /></g><g
   style="font-style:normal;font-weight:normal;line-height:0%;font-family:'Bitstream Vera Sans';letter-spacing:0px;word-spacing:0px;fill:#000000;fill-opacity:1;stroke:none"
   id="text3788-8"
   transform="scale(-1)"
   aria-label="5"><path
     id="path876"
     style="font-style:normal;font-variant:normal;font-weight:normal;font-stretch:normal;font-size:32px;line-height:1.25;font-family:Arial;-inkscape-font-specification:Arial"
     d="m -157.53583,-220.4666 2.95313,-0.25 q 0.32812,2.15625 1.51562,3.25 1.20313,1.07813 2.89063,1.07813 2.03125,0 3.4375,-1.53125 1.40625,-1.53125 1.40625,-4.0625 0,-2.40625 -1.35938,-3.79688 -1.34375,-1.39062 -3.53125,-1.39062 -1.35937,0 -2.45312,0.625 -1.09375,0.60937 -1.71875,1.59375 l -2.64063,-0.34375 2.21875,-11.76563 h 11.39063 v 2.6875 h -9.14063 l -1.23437,6.15625 q 2.0625,-1.4375 4.32812,-1.4375 3,0 5.0625,2.07813 2.0625,2.07812 2.0625,5.34375 0,3.10937 -1.8125,5.375 -2.20312,2.78125 -6.01562,2.78125 -3.125,0 -5.10938,-1.75 -1.96875,-1.75 -2.25,-4.64063 z" /></g>





<g
   id="layer1-1-4-1"
   transform="matrix(-1.4856506,0,0,-1.4856506,221.19916,232.46182)"><path
     style="fill:#000000"
     inkscape:connector-curvature="0"
     d="m 50.291466,22.698228 c 0,0 2.375,-1.9 2.375,-4.534 0,-1.542 -1.369,-4.102 -4.534,-4.102 -3.165,0 -4.534,2.561 -4.534,4.102 0,2.634 2.375,4.534 2.375,4.534 -2.638,-2.055 -7.341,-0.652 -7.341,3.455 0,2.056 1.68,4.318 4.318,4.318 3.165,0 4.534,-3.455 4.534,-3.455 0,0 0.402,3.938 -1.943,6.046 h 5.182 c -2.345,-2.107 -1.943,-6.046 -1.943,-6.046 0,0 1.369,3.455 4.534,3.455 2.639,0 4.318,-2.263 4.318,-4.318 0,-4.107 -4.703,-5.51 -7.341,-3.455 z"
     id="cl-9-7" /></g><g
   id="layer1-1-4-8"
   transform="matrix(2.5125778,0,0,2.5125778,-67.188386,-1.5311156)"><path
     style="fill:#000000"
     inkscape:connector-curvature="0"
     d="m 50.291466,22.698228 c 0,0 2.375,-1.9 2.375,-4.534 0,-1.542 -1.369,-4.102 -4.534,-4.102 -3.165,0 -4.534,2.561 -4.534,4.102 0,2.634 2.375,4.534 2.375,4.534 -2.638,-2.055 -7.341,-0.652 -7.341,3.455 0,2.056 1.68,4.318 4.318,4.318 3.165,0 4.534,-3.455 4.534,-3.455 0,0 0.402,3.938 -1.943,6.046 h 5.182 c -2.345,-2.107 -1.943,-6.046 -1.943,-6.046 0,0 1.369,3.455 4.534,3.455 2.639,0 4.318,-2.263 4.318,-4.318 0,-4.107 -4.703,-5.51 -7.341,-3.455 z"
     id="cl-9-8" /></g><g
   id="layer1-1-4-8-0"
   transform="matrix(-2.5125778,0,0,-2.5125778,174.72954,245.27515)"><path
     style="fill:#000000"
     inkscape:connector-curvature="0"
     d="m 50.291466,22.698228 c 0,0 2.375,-1.9 2.375,-4.534 0,-1.542 -1.369,-4.102 -4.534,-4.102 -3.165,0 -4.534,2.561 -4.534,4.102 0,2.634 2.375,4.534 2.375,4.534 -2.638,-2.055 -7.341,-0.652 -7.341,3.455 0,2.056 1.68,4.318 4.318,4.318 3.165,0 4.534,-3.455 4.534,-3.455 0,0 0.402,3.938 -1.943,6.046 h 5.182 c -2.345,-2.107 -1.943,-6.046 -1.943,-6.046 0,0 1.369,3.455 4.534,3.455 2.639,0 4.318,-2.263 4.318,-4.318 0,-4.107 -4.703,-5.51 -7.341,-3.455 z"
     id="cl-9-8-6" /></g><g
   id="layer1-1-4-8-2"
   transform="matrix(2.5125778,0,0,2.5125778,-9.1115857,-1.5311131)"><path
     style="fill:#000000"
     inkscape:connector-curvature="0"
     d="m 50.291466,22.698228 c 0,0 2.375,-1.9 2.375,-4.534 0,-1.542 -1.369,-4.102 -4.534,-4.102 -3.165,0 -4.534,2.561 -4.534,4.102 0,2.634 2.375,4.534 2.375,4.534 -2.638,-2.055 -7.341,-0.652 -7.341,3.455 0,2.056 1.68,4.318 4.318,4.318 3.165,0 4.534,-3.455 4.534,-3.455 0,0 0.402,3.938 -1.943,6.046 h 5.182 c -2.345,-2.107 -1.943,-6.046 -1.943,-6.046 0,0 1.369,3.455 4.534,3.455 2.639,0 4.318,-2.263 4.318,-4.318 0,-4.107 -4.703,-5.51 -7.341,-3.455 z"
     id="cl-9-8-66" /></g><g
   id="layer1-1-4-8-0-4"
   transform="matrix(-2.5125778,0,0,-2.5125778,232.80634,245.27515)"><path
     style="fill:#000000"
     inkscape:connector-curvature="0"
     d="m 50.291466,22.698228 c 0,0 2.375,-1.9 2.375,-4.534 0,-1.542 -1.369,-4.102 -4.534,-4.102 -3.165,0 -4.534,2.561 -4.534,4.102 0,2.634 2.375,4.534 2.375,4.534 -2.638,-2.055 -7.341,-0.652 -7.341,3.455 0,2.056 1.68,4.318 4.318,4.318 3.165,0 4.534,-3.455 4.534,-3.455 0,0 0.402,3.938 -1.943,6.046 h 5.182 c -2.345,-2.107 -1.943,-6.046 -1.943,-6.046 0,0 1.369,3.455 4.534,3.455 2.639,0 4.318,-2.263 4.318,-4.318 0,-4.107 -4.703,-5.51 -7.341,-3.455 z"
     id="cl-9-8-6-9" /></g><g
   id="layer1-1-4-8-2-6"
   transform="matrix(2.5125778,0,0,2.5125778,-38.388386,61.769684)"><path
     style="fill:#000000"
     inkscape:connector-curvature="0"
     d="m 50.291466,22.698228 c 0,0 2.375,-1.9 2.375,-4.534 0,-1.542 -1.369,-4.102 -4.534,-4.102 -3.165,0 -4.534,2.561 -4.534,4.102 0,2.634 2.375,4.534 2.375,4.534 -2.638,-2.055 -7.341,-0.652 -7.341,3.455 0,2.056 1.68,4.318 4.318,4.318 3.165,0 4.534,-3.455 4.534,-3.455 0,0 0.402,3.938 -1.943,6.046 h 5.182 c -2.345,-2.107 -1.943,-6.046 -1.943,-6.046 0,0 1.369,3.455 4.534,3.455 2.639,0 4.318,-2.263 4.318,-4.318 0,-4.107 -4.703,-5.51 -7.341,-3.455 z"
     id="cl-9-8-0" /></g></svg>
