<?xml version="1.0" encoding="UTF-8" standalone="no"?>
<svg
   xmlns:dc="http://purl.org/dc/elements/1.1/"
   xmlns:cc="http://creativecommons.org/ns#"
   xmlns:rdf="http://www.w3.org/1999/02/22-rdf-syntax-ns#"
   xmlns:svg="http://www.w3.org/2000/svg"
   xmlns="http://www.w3.org/2000/svg"
   xmlns:sodipodi="http://sodipodi.sourceforge.net/DTD/sodipodi-0.dtd"
   xmlns:inkscape="http://www.inkscape.org/namespaces/inkscape"
   inkscape:export-ydpi="215.44792"
   inkscape:export-xdpi="215.44792"
   inkscape:export-filename="/home/byron/art/cards/final/PNGs/6_of_spades.png"
   sodipodi:docname="6_of_spades.svg"
   inkscape:version="1.0 (4035a4fb49, 2020-05-01)"
   version="1.1"
   id="svg2"
   xml:space="preserve"
   viewBox="0 0 167.0869141 242.6669922"
   height="242.6669922pt"
   width="167.0869141pt"><metadata
   id="metadata43"><rdf:RDF><cc:Work
       rdf:about=""><dc:format>image/svg+xml</dc:format><dc:type
         rdf:resource="http://purl.org/dc/dcmitype/StillImage" /><dc:title /></cc:Work></rdf:RDF></metadata><defs
   id="defs41" /><sodipodi:namedview
   inkscape:document-rotation="0"
   inkscape:current-layer="svg2"
   inkscape:window-maximized="1"
   inkscape:window-y="-8"
   inkscape:window-x="-8"
   inkscape:cy="157.08206"
   inkscape:cx="106.02254"
   inkscape:zoom="2.4336873"
   showgrid="false"
   id="namedview39"
   inkscape:window-height="1377"
   inkscape:window-width="2560"
   inkscape:pageshadow="2"
   inkscape:pageopacity="0"
   guidetolerance="10"
   gridtolerance="10"
   objecttolerance="10"
   borderopacity="1"
   bordercolor="#666666"
   pagecolor="#ffffff" />
	<g
   style="fill-rule:nonzero;clip-rule:nonzero;stroke:#000000;stroke-miterlimit:4;"
   id="Layer_x0020_1">
		<path
   id="path5"
   d="M166.8369141,235.5478516c0,3.7773438-3.0869141,6.8691406-6.8710938,6.8691406H7.1108398c-3.7749023,0-6.8608398-3.0917969-6.8608398-6.8691406V7.1201172C0.25,3.3427734,3.3359375,0.25,7.1108398,0.25h152.8549805    c3.7841797,0,6.8710938,3.0927734,6.8710938,6.8701172v228.4277344z"
   style="fill:#FFFFFF;stroke-width:0.5;" />
		<g
   id="g7"
   style="stroke:none;">
			<g
   id="g9">
				
			</g>
			
		</g>
		<g
   id="g15">
			
		</g>
		<g
   id="g19">
			
		</g>
		<g
   id="g23"
   style="stroke:none;">
			<g
   id="g25">
				
			</g>
			
		</g>
		<g
   id="g31"
   style="stroke:none;">
			<g
   id="g33">
				
			</g>
			
		</g>
	</g>
<g
   style="font-style:normal;font-weight:normal;line-height:0%;font-family:'Bitstream Vera Sans';letter-spacing:0px;word-spacing:0px;fill:#000000;fill-opacity:1;stroke:none"
   id="text3788"
   aria-label="6"><path
     id="path859"
     style="font-style:normal;font-variant:normal;font-weight:normal;font-stretch:normal;font-size:32px;line-height:1.25;font-family:Arial;-inkscape-font-specification:Arial"
     d="m 24.468576,10.716413 -2.796875,0.21875 q -0.375,-1.6562495 -1.0625,-2.4062495 -1.140625,-1.203125 -2.8125,-1.203125 -1.34375,0 -2.359375,0.75 -1.328125,0.96875 -2.09375,2.8281245 -0.765625,1.859375 -0.796875,5.296875 1.015625,-1.546875 2.484375,-2.296875 1.46875,-0.75 3.078125,-0.75 2.8125,0 4.78125,2.078125 1.984375,2.0625 1.984375,5.34375 0,2.15625 -0.9375,4.015625 -0.921875,1.84375 -2.546875,2.828125 -1.625,0.984375 -3.6875,0.984375 -3.515625,0 -5.734375,-2.578125 -2.2187496,-2.59375 -2.2187496,-8.53125 0,-6.640625 2.4531246,-9.6562495 2.140625,-2.625 5.765625,-2.625 2.703125,0 4.421875,1.515625 1.734375,1.515625 2.078125,4.1874995 z m -11.484375,9.875 q 0,1.453125 0.609375,2.78125 0.625,1.328125 1.734375,2.03125 1.109375,0.6875 2.328125,0.6875 1.78125,0 3.0625,-1.4375 1.28125,-1.4375 1.28125,-3.90625 0,-2.375 -1.265625,-3.734375 -1.265625,-1.375 -3.1875,-1.375 -1.90625,0 -3.234375,1.375 -1.328125,1.359375 -1.328125,3.578125 z" /></g>



<g
   id="layer1-7"
   transform="matrix(1.5085945,0,0,1.3793253,16.929104,45.065897)"><path
     sodipodi:nodetypes="cccccccccc"
     style="fill:#000000"
     inkscape:connector-curvature="0"
     d="M 7.989,3.103 C 7.747,-0.954 0.242,-8.59 0,-10.5 c -0.242,1.909 -7.747,9.545 -7.989,13.603 -0.169,2.868 1.695,4.057 3.39,4.057 1.8351685,-0.021581 3.3508701,-2.8006944 3.873,-3.341 0.242,0.716 -1.603,6.682 -2.179,6.682 l 5.811,0 C 2.33,10.501 0.485,4.535 0.727,3.819 1.1841472,4.3152961 2.5241276,7.0768295 4.601,7.16 6.295,7.159 8.158,5.971 7.989,3.103 z"
     id="sl" /></g>
<g
   id="layer1-7-88"
   transform="matrix(2.6486789,0,0,2.4217176,56.21089,49.365995)"><path
     sodipodi:nodetypes="cccccccccc"
     style="fill:#000000"
     inkscape:connector-curvature="0"
     d="M 7.989,3.103 C 7.747,-0.954 0.242,-8.59 0,-10.5 c -0.242,1.909 -7.747,9.545 -7.989,13.603 -0.169,2.868 1.695,4.057 3.39,4.057 1.8351685,-0.021581 3.3508701,-2.8006944 3.873,-3.341 0.242,0.716 -1.603,6.682 -2.179,6.682 l 5.811,0 C 2.33,10.501 0.485,4.535 0.727,3.819 1.1841472,4.3152961 2.5241276,7.0768295 4.601,7.16 6.295,7.159 8.158,5.971 7.989,3.103 z"
     id="sl-4" /></g><g
   style="font-style:normal;font-weight:normal;line-height:0%;font-family:'Bitstream Vera Sans';letter-spacing:0px;word-spacing:0px;fill:#000000;fill-opacity:1;stroke:none"
   id="text3788-7"
   transform="scale(-1)"
   aria-label="6"><path
     id="path862"
     style="font-style:normal;font-variant:normal;font-weight:normal;font-stretch:normal;font-size:32px;line-height:1.25;font-family:Arial;-inkscape-font-specification:Arial"
     d="m -143.05588,-232.4209 -2.79687,0.21875 q -0.375,-1.65625 -1.0625,-2.40625 -1.14063,-1.20312 -2.8125,-1.20312 -1.34375,0 -2.35938,0.75 -1.32812,0.96875 -2.09375,2.82812 -0.76562,1.85938 -0.79687,5.29688 1.01562,-1.54688 2.48437,-2.29688 1.46875,-0.75 3.07813,-0.75 2.8125,0 4.78125,2.07813 1.98437,2.0625 1.98437,5.34375 0,2.15625 -0.9375,4.01562 -0.92187,1.84375 -2.54687,2.82813 -1.625,0.98437 -3.6875,0.98437 -3.51563,0 -5.73438,-2.57812 -2.21875,-2.59375 -2.21875,-8.53125 0,-6.64063 2.45313,-9.65625 2.14062,-2.625 5.76562,-2.625 2.70313,0 4.42188,1.51562 1.73437,1.51563 2.07812,4.1875 z m -11.48437,9.875 q 0,1.45313 0.60937,2.78125 0.625,1.32813 1.73438,2.03125 1.10937,0.6875 2.32812,0.6875 1.78125,0 3.0625,-1.4375 1.28125,-1.4375 1.28125,-3.90625 0,-2.375 -1.26562,-3.73437 -1.26563,-1.375 -3.1875,-1.375 -1.90625,0 -3.23438,1.375 -1.32812,1.35937 -1.32812,3.57812 z" /></g>


<g
   id="layer1-7-3"
   transform="matrix(-1.5085945,0,0,-1.3793253,150.22511,198.04408)"><path
     sodipodi:nodetypes="cccccccccc"
     style="fill:#000000"
     inkscape:connector-curvature="0"
     d="M 7.989,3.103 C 7.747,-0.954 0.242,-8.59 0,-10.5 c -0.242,1.909 -7.747,9.545 -7.989,13.603 -0.169,2.868 1.695,4.057 3.39,4.057 1.8351685,-0.021581 3.3508701,-2.8006944 3.873,-3.341 0.242,0.716 -1.603,6.682 -2.179,6.682 l 5.811,0 C 2.33,10.501 0.485,4.535 0.727,3.819 1.1841472,4.3152961 2.5241276,7.0768295 4.601,7.16 6.295,7.159 8.158,5.971 7.989,3.103 z"
     id="sl-1" /></g><g
   id="layer1-7-88-7"
   transform="matrix(-2.6486789,0,0,-2.4217176,56.25613,193.77132)"><path
     sodipodi:nodetypes="cccccccccc"
     style="fill:#000000"
     inkscape:connector-curvature="0"
     d="M 7.989,3.103 C 7.747,-0.954 0.242,-8.59 0,-10.5 c -0.242,1.909 -7.747,9.545 -7.989,13.603 -0.169,2.868 1.695,4.057 3.39,4.057 1.8351685,-0.021581 3.3508701,-2.8006944 3.873,-3.341 0.242,0.716 -1.603,6.682 -2.179,6.682 l 5.811,0 C 2.33,10.501 0.485,4.535 0.727,3.819 1.1841472,4.3152961 2.5241276,7.0768295 4.601,7.16 6.295,7.159 8.158,5.971 7.989,3.103 z"
     id="sl-4-5" /></g><g
   id="layer1-7-88-6"
   transform="matrix(2.6486789,0,0,2.4217176,56.294697,119.06732)"><path
     sodipodi:nodetypes="cccccccccc"
     style="fill:#000000"
     inkscape:connector-curvature="0"
     d="M 7.989,3.103 C 7.747,-0.954 0.242,-8.59 0,-10.5 c -0.242,1.909 -7.747,9.545 -7.989,13.603 -0.169,2.868 1.695,4.057 3.39,4.057 1.8351685,-0.021581 3.3508701,-2.8006944 3.873,-3.341 0.242,0.716 -1.603,6.682 -2.179,6.682 l 5.811,0 C 2.33,10.501 0.485,4.535 0.727,3.819 1.1841472,4.3152961 2.5241276,7.0768295 4.601,7.16 6.295,7.159 8.158,5.971 7.989,3.103 z"
     id="sl-4-8" /></g><g
   id="layer1-7-88-68"
   transform="matrix(2.6486789,0,0,2.4217176,110.89781,49.166905)"><path
     sodipodi:nodetypes="cccccccccc"
     style="fill:#000000"
     inkscape:connector-curvature="0"
     d="M 7.989,3.103 C 7.747,-0.954 0.242,-8.59 0,-10.5 c -0.242,1.909 -7.747,9.545 -7.989,13.603 -0.169,2.868 1.695,4.057 3.39,4.057 1.8351685,-0.021581 3.3508701,-2.8006944 3.873,-3.341 0.242,0.716 -1.603,6.682 -2.179,6.682 l 5.811,0 C 2.33,10.501 0.485,4.535 0.727,3.819 1.1841472,4.3152961 2.5241276,7.0768295 4.601,7.16 6.295,7.159 8.158,5.971 7.989,3.103 z"
     id="sl-4-84" /></g><g
   id="layer1-7-88-7-3"
   transform="matrix(-2.6486789,0,0,-2.4217176,110.94305,193.57223)"><path
     sodipodi:nodetypes="cccccccccc"
     style="fill:#000000"
     inkscape:connector-curvature="0"
     d="M 7.989,3.103 C 7.747,-0.954 0.242,-8.59 0,-10.5 c -0.242,1.909 -7.747,9.545 -7.989,13.603 -0.169,2.868 1.695,4.057 3.39,4.057 1.8351685,-0.021581 3.3508701,-2.8006944 3.873,-3.341 0.242,0.716 -1.603,6.682 -2.179,6.682 l 5.811,0 C 2.33,10.501 0.485,4.535 0.727,3.819 1.1841472,4.3152961 2.5241276,7.0768295 4.601,7.16 6.295,7.159 8.158,5.971 7.989,3.103 z"
     id="sl-4-5-1" /></g><g
   id="layer1-7-88-6-4"
   transform="matrix(2.6486789,0,0,2.4217176,110.98162,118.86823)"><path
     sodipodi:nodetypes="cccccccccc"
     style="fill:#000000"
     inkscape:connector-curvature="0"
     d="M 7.989,3.103 C 7.747,-0.954 0.242,-8.59 0,-10.5 c -0.242,1.909 -7.747,9.545 -7.989,13.603 -0.169,2.868 1.695,4.057 3.39,4.057 1.8351685,-0.021581 3.3508701,-2.8006944 3.873,-3.341 0.242,0.716 -1.603,6.682 -2.179,6.682 l 5.811,0 C 2.33,10.501 0.485,4.535 0.727,3.819 1.1841472,4.3152961 2.5241276,7.0768295 4.601,7.16 6.295,7.159 8.158,5.971 7.989,3.103 z"
     id="sl-4-8-9" /></g></svg>
