<?xml version="1.0" encoding="UTF-8" standalone="no"?>
<svg
   xmlns:dc="http://purl.org/dc/elements/1.1/"
   xmlns:cc="http://creativecommons.org/ns#"
   xmlns:rdf="http://www.w3.org/1999/02/22-rdf-syntax-ns#"
   xmlns:svg="http://www.w3.org/2000/svg"
   xmlns="http://www.w3.org/2000/svg"
   xmlns:xlink="http://www.w3.org/1999/xlink"
   xmlns:sodipodi="http://sodipodi.sourceforge.net/DTD/sodipodi-0.dtd"
   xmlns:inkscape="http://www.inkscape.org/namespaces/inkscape"
   inkscape:export-ydpi="215.44792"
   inkscape:export-xdpi="215.44792"
   inkscape:export-filename="/home/byron/art/cards/final/PNGs/9_of_clubs.png"
   sodipodi:docname="9_of_clubs.svg"
   inkscape:version="1.0 (4035a4fb49, 2020-05-01)"
   version="1.1"
   id="svg2"
   xml:space="preserve"
   viewBox="0 0 167.0869141 242.6669922"
   height="242.6669922pt"
   width="167.0869141pt"><metadata
   id="metadata43"><rdf:RDF><cc:Work
       rdf:about=""><dc:format>image/svg+xml</dc:format><dc:type
         rdf:resource="http://purl.org/dc/dcmitype/StillImage" /><dc:title /></cc:Work></rdf:RDF></metadata><defs
   id="defs41"><radialGradient
     gradientTransform="matrix(-1.5605256,0.01828294,-0.02684055,-2.2909528,123.98377,58.809108)"
     gradientUnits="userSpaceOnUse"
     r="9.5"
     fy="18.137882"
     fx="48.231091"
     cy="18.137882"
     cx="48.231091"
     id="radialGradient3760"
     xlink:href="#linearGradient2984"
     inkscape:collect="always" /><linearGradient
     id="linearGradient2984"><stop
       id="stop2986"
       offset="0"
       style="stop-color:#000000;stop-opacity:1;" /><stop
       id="stop2988"
       offset="1"
       style="stop-color:#000000;stop-opacity:0.65648854;" /></linearGradient><radialGradient
     gradientUnits="userSpaceOnUse"
     gradientTransform="matrix(1.1529891,-0.67391547,0.39482025,0.67549043,-233.63262,270.40076)"
     r="81.902771"
     fy="511.22299"
     fx="171.48665"
     cy="511.22299"
     cx="171.48665"
     id="radialGradient3792"
     xlink:href="#linearGradient3784"
     inkscape:collect="always" /><linearGradient
     id="linearGradient3784"><stop
       id="stop3786"
       offset="0"
       style="stop-color:#ffffff;stop-opacity:0.53435117;" /><stop
       id="stop3788"
       offset="1"
       style="stop-color:#000000;stop-opacity:0;" /></linearGradient><radialGradient
     inkscape:collect="always"
     xlink:href="#linearGradient3784-4"
     id="radialGradient3855"
     gradientUnits="userSpaceOnUse"
     gradientTransform="matrix(1.1529891,-0.67391547,0.39482025,0.67549043,-233.63262,270.40076)"
     cx="171.48665"
     cy="511.22299"
     fx="171.48665"
     fy="511.22299"
     r="81.902771" /><linearGradient
     id="linearGradient3784-4"><stop
       id="stop3786-8"
       offset="0"
       style="stop-color:#ffffff;stop-opacity:0.51908398;" /><stop
       id="stop3788-6"
       offset="1"
       style="stop-color:#000000;stop-opacity:0;" /></linearGradient><radialGradient
     inkscape:collect="always"
     xlink:href="#linearGradient3784-3"
     id="radialGradient3916"
     gradientUnits="userSpaceOnUse"
     gradientTransform="matrix(1.1529891,-0.67391547,0.39482025,0.67549043,-233.63262,270.40076)"
     cx="181.69392"
     cy="461.84113"
     fx="181.69392"
     fy="461.84113"
     r="81.902771" /><linearGradient
     id="linearGradient3784-3"><stop
       id="stop3786-86"
       offset="0"
       style="stop-color:#ffffff;stop-opacity:0.70229006;" /><stop
       id="stop3788-2"
       offset="1"
       style="stop-color:#000000;stop-opacity:0;" /></linearGradient></defs><sodipodi:namedview
   inkscape:document-rotation="0"
   inkscape:current-layer="svg2"
   inkscape:window-maximized="1"
   inkscape:window-y="-8"
   inkscape:window-x="-8"
   inkscape:cy="148.16686"
   inkscape:cx="117.62976"
   inkscape:zoom="2.4336873"
   showgrid="false"
   id="namedview39"
   inkscape:window-height="1377"
   inkscape:window-width="2560"
   inkscape:pageshadow="2"
   inkscape:pageopacity="0"
   guidetolerance="10"
   gridtolerance="10"
   objecttolerance="10"
   borderopacity="1"
   bordercolor="#666666"
   pagecolor="#ffffff" />
	<g
   style="fill-rule:nonzero;clip-rule:nonzero;stroke:#000000;stroke-miterlimit:4;"
   id="Layer_x0020_1">
		<path
   id="path5"
   d="M166.8369141,235.5478516c0,3.7773438-3.0869141,6.8691406-6.8710938,6.8691406H7.1108398c-3.7749023,0-6.8608398-3.0917969-6.8608398-6.8691406V7.1201172C0.25,3.3427734,3.3359375,0.25,7.1108398,0.25h152.8549805    c3.7841797,0,6.8710938,3.0927734,6.8710938,6.8701172v228.4277344z"
   style="fill:#FFFFFF;stroke-width:0.5;" />
		<g
   id="g7"
   style="stroke:none;">
			<g
   id="g9">
				
			</g>
			
		</g>
		<g
   id="g15">
			
		</g>
		<g
   id="g19">
			
		</g>
		<g
   id="g23"
   style="stroke:none;">
			<g
   id="g25">
				
			</g>
			
		</g>
		<g
   id="g31"
   style="stroke:none;">
			<g
   id="g33">
				
			</g>
			
		</g>
	</g>
<g
   style="font-style:normal;font-weight:normal;line-height:0%;font-family:'Bitstream Vera Sans';letter-spacing:0px;word-spacing:0px;fill:#000000;fill-opacity:1;stroke:none"
   id="text3788"
   aria-label="9"><path
     id="path872"
     style="font-style:normal;font-variant:normal;font-weight:normal;font-stretch:normal;font-size:32px;line-height:1.25;font-family:Arial;-inkscape-font-specification:Arial"
     d="m 10.060546,22.251534 2.703125,-0.25 q 0.34375,1.90625 1.3125,2.765625 0.96875,0.859375 2.484375,0.859375 1.296875,0 2.265625,-0.59375 0.984375,-0.59375 1.609375,-1.578125 0.625,-1 1.046875,-2.6875 0.421875,-1.6875 0.421875,-3.4375 0,-0.1875 -0.01563,-0.5625 -0.84375,1.34375 -2.3125,2.1875 -1.453125,0.828125 -3.15625,0.828125 -2.84375,0 -4.8125,-2.0625 -1.9687501,-2.0625 -1.9687501,-5.4375 0,-3.4843755 2.0468751,-5.6093755 2.0625,-2.125 5.15625,-2.125 2.234375,0 4.078125,1.203125 1.859375,1.203125 2.8125,3.4375 0.96875,2.2187505 0.96875,6.4375005 0,4.390625 -0.953125,7 -0.953125,2.59375 -2.84375,3.953125 -1.875,1.359375 -4.40625,1.359375 -2.6875,0 -4.390625,-1.484375 -1.703125,-1.5 -2.046875,-4.203125 z M 21.576171,12.142159 q 0,-2.4218755 -1.296875,-3.8437505 -1.28125,-1.421875 -3.09375,-1.421875 -1.875,0 -3.265625,1.53125 -1.390625,1.53125 -1.390625,3.9687505 0,2.1875 1.3125,3.5625 1.328125,1.359375 3.265625,1.359375 1.953125,0 3.203125,-1.359375 1.265625,-1.375 1.265625,-3.796875 z" /></g>












<g
   id="layer1-1-4"
   transform="matrix(1.4856506,0,0,1.4856506,-54.024661,10.018072)"><path
     style="fill:#000000"
     inkscape:connector-curvature="0"
     d="m 50.291466,22.698228 c 0,0 2.375,-1.9 2.375,-4.534 0,-1.542 -1.369,-4.102 -4.534,-4.102 -3.165,0 -4.534,2.561 -4.534,4.102 0,2.634 2.375,4.534 2.375,4.534 -2.638,-2.055 -7.341,-0.652 -7.341,3.455 0,2.056 1.68,4.318 4.318,4.318 3.165,0 4.534,-3.455 4.534,-3.455 0,0 0.402,3.938 -1.943,6.046 h 5.182 c -2.345,-2.107 -1.943,-6.046 -1.943,-6.046 0,0 1.369,3.455 4.534,3.455 2.639,0 4.318,-2.263 4.318,-4.318 0,-4.107 -4.703,-5.51 -7.341,-3.455 z"
     id="cl-9" /></g><g
   style="font-style:normal;font-weight:normal;line-height:0%;font-family:'Bitstream Vera Sans';letter-spacing:0px;word-spacing:0px;fill:#000000;fill-opacity:1;stroke:none"
   id="text3788-8"
   transform="scale(-1)"
   aria-label="9"><path
     id="path875"
     style="font-style:normal;font-variant:normal;font-weight:normal;font-stretch:normal;font-size:32px;line-height:1.25;font-family:Arial;-inkscape-font-specification:Arial"
     d="m -157.11395,-219.76347 2.70312,-0.25 q 0.34375,1.90625 1.3125,2.76562 0.96875,0.85938 2.48438,0.85938 1.29687,0 2.26562,-0.59375 0.98438,-0.59375 1.60938,-1.57813 0.625,-1 1.04687,-2.6875 0.42188,-1.6875 0.42188,-3.4375 0,-0.1875 -0.0156,-0.5625 -0.84375,1.34375 -2.3125,2.1875 -1.45312,0.82813 -3.15625,0.82813 -2.84375,0 -4.8125,-2.0625 -1.96875,-2.0625 -1.96875,-5.4375 0,-3.48438 2.04688,-5.60938 2.0625,-2.125 5.15625,-2.125 2.23437,0 4.07812,1.20313 1.85938,1.20312 2.8125,3.4375 0.96875,2.21875 0.96875,6.4375 0,4.39062 -0.95312,7 -0.95313,2.59375 -2.84375,3.95312 -1.875,1.35938 -4.40625,1.35938 -2.6875,0 -4.39063,-1.48438 -1.70312,-1.5 -2.04687,-4.20312 z m 11.51562,-10.10938 q 0,-2.42187 -1.29687,-3.84375 -1.28125,-1.42187 -3.09375,-1.42187 -1.875,0 -3.26563,1.53125 -1.39062,1.53125 -1.39062,3.96875 0,2.1875 1.3125,3.5625 1.32812,1.35937 3.26562,1.35937 1.95313,0 3.20313,-1.35937 1.26562,-1.375 1.26562,-3.79688 z" /></g>










<g
   id="layer1-1-4-1"
   transform="matrix(-1.4856506,0,0,-1.4856506,221.19916,232.46182)"><path
     style="fill:#000000"
     inkscape:connector-curvature="0"
     d="m 50.291466,22.698228 c 0,0 2.375,-1.9 2.375,-4.534 0,-1.542 -1.369,-4.102 -4.534,-4.102 -3.165,0 -4.534,2.561 -4.534,4.102 0,2.634 2.375,4.534 2.375,4.534 -2.638,-2.055 -7.341,-0.652 -7.341,3.455 0,2.056 1.68,4.318 4.318,4.318 3.165,0 4.534,-3.455 4.534,-3.455 0,0 0.402,3.938 -1.943,6.046 h 5.182 c -2.345,-2.107 -1.943,-6.046 -1.943,-6.046 0,0 1.369,3.455 4.534,3.455 2.639,0 4.318,-2.263 4.318,-4.318 0,-4.107 -4.703,-5.51 -7.341,-3.455 z"
     id="cl-9-7" /></g><path
   id="cl-9-8"
   d="m 57.572834,25.099947 c 0,0 5.967372,-4.773898 5.967372,-11.392027 0,-3.8743954 -3.43972,-10.3065945 -11.392028,-10.3065945 -7.952308,0 -11.392028,6.4347116 -11.392028,10.3065945 0,6.618129 5.967373,11.392027 5.967373,11.392027 -6.62818,-5.163348 -18.444833,-1.638201 -18.444833,8.680956 0,5.16586 4.22113,10.849311 10.849311,10.849311 7.952308,0 11.392027,-8.680956 11.392027,-8.680956 0,0 1.010056,9.894531 -4.881939,15.191045 h 13.020178 c -5.891994,-5.294001 -4.881938,-15.191045 -4.881938,-15.191045 0,0 3.439718,8.680956 11.392027,8.680956 6.630693,0 10.849311,-5.685963 10.849311,-10.849311 0,-10.319157 -11.816654,-13.844304 -18.444833,-8.680956 z"
   inkscape:connector-curvature="0"
   style="fill:#000000" /><path
   id="cl-9-8-0"
   d="m 57.110434,93.200747 c 0,0 5.967372,-4.773898 5.967372,-11.392027 0,-3.874396 -3.43972,-10.306594 -11.392028,-10.306594 -7.952308,0 -11.392028,6.434711 -11.392028,10.306594 0,6.618129 5.967373,11.392027 5.967373,11.392027 -6.62818,-5.163348 -18.444833,-1.638201 -18.444833,8.680953 0,5.16587 4.22113,10.84932 10.849311,10.84932 7.952308,0 11.392027,-8.68096 11.392027,-8.68096 0,0 1.010056,9.89453 -4.881939,15.19104 h 13.020178 c -5.891994,-5.294 -4.881938,-15.19104 -4.881938,-15.19104 0,0 3.439718,8.68096 11.392027,8.68096 6.630693,0 10.849311,-5.68597 10.849311,-10.84932 0,-10.319154 -11.816654,-13.844301 -18.444833,-8.680953 z"
   inkscape:connector-curvature="0"
   style="fill:#000000" /><path
   id="cl-9-8-9"
   d="m 121.55789,24.926219 c 0,0 5.96737,-4.773898 5.96737,-11.392027 0,-3.8743954 -3.43971,-10.3065945 -11.39203,-10.3065945 -7.95231,0 -11.39202,6.4347116 -11.39202,10.3065945 0,6.618129 5.96737,11.392027 5.96737,11.392027 -6.62818,-5.163348 -18.444834,-1.638201 -18.444834,8.680956 0,5.16586 4.22113,10.849311 10.849304,10.849311 7.95231,0 11.39203,-8.680956 11.39203,-8.680956 0,0 1.01006,9.894531 -4.88193,15.191045 h 13.02017 c -5.89199,-5.294001 -4.88193,-15.191045 -4.88193,-15.191045 0,0 3.43971,8.680956 11.39202,8.680956 6.63069,0 10.84931,-5.685963 10.84931,-10.849311 0,-10.319157 -11.81665,-13.844304 -18.44483,-8.680956 z"
   inkscape:connector-curvature="0"
   style="fill:#000000" /><path
   id="cl-9-8-0-4"
   d="m 121.55789,93.027019 c 0,0 5.96737,-4.773898 5.96737,-11.392028 0,-3.874395 -3.43971,-10.306593 -11.39203,-10.306593 -7.95231,0 -11.39202,6.434711 -11.39202,10.306593 0,6.61813 5.96737,11.392028 5.96737,11.392028 -6.62818,-5.163348 -18.444834,-1.638201 -18.444834,8.680951 0,5.16587 4.22113,10.84932 10.849304,10.84932 7.95231,0 11.39203,-8.68096 11.39203,-8.68096 0,0 1.01006,9.89453 -4.88193,15.19104 h 13.02017 c -5.89199,-5.294 -4.88193,-15.19104 -4.88193,-15.19104 0,0 3.43971,8.68096 11.39202,8.68096 6.63069,0 10.84931,-5.68597 10.84931,-10.84932 0,-10.319152 -11.81665,-13.844299 -18.44483,-8.680951 z"
   inkscape:connector-curvature="0"
   style="fill:#000000" /><path
   id="cl-9-8-8"
   d="m 89.576544,59.281103 c 0,0 5.967372,-4.773897 5.967372,-11.392027 0,-3.874395 -3.43972,-10.306594 -11.392028,-10.306594 -7.952308,0 -11.392028,6.434712 -11.392028,10.306594 0,6.61813 5.967373,11.392027 5.967373,11.392027 C 72.099053,54.117756 60.2824,57.642902 60.2824,67.96206 c 0,5.165859 4.22113,10.84931 10.849311,10.84931 7.952308,0 11.392027,-8.680956 11.392027,-8.680956 0,0 1.010056,9.894531 -4.881939,15.191045 h 13.020178 c -5.891994,-5.294001 -4.881938,-15.191045 -4.881938,-15.191045 0,0 3.439718,8.680956 11.392027,8.680956 6.630694,0 10.849314,-5.685963 10.849314,-10.84931 0,-10.319158 -11.816657,-13.844304 -18.444836,-8.680957 z"
   inkscape:connector-curvature="0"
   style="fill:#000000" /><path
   id="cl-9-8-4"
   d="m 110.06258,217.80216 c 0,0 -5.96737,4.77391 -5.96737,11.39203 0,3.8744 3.43971,10.3066 11.39202,10.3066 7.95232,0 11.39203,-6.43471 11.39203,-10.3066 0,-6.61812 -5.96737,-11.39203 -5.96737,-11.39203 6.62818,5.16335 18.44483,1.6382 18.44483,-8.68095 0,-5.16586 -4.22112,-10.84931 -10.84931,-10.84931 -7.95231,0 -11.39202,8.68095 -11.39202,8.68095 0,0 -1.01006,-9.89453 4.88193,-15.19104 h -13.02017 c 5.89199,5.294 4.88193,15.19104 4.88193,15.19104 0,0 -3.43972,-8.68095 -11.39203,-8.68095 -6.630687,0 -10.849305,5.68596 -10.849305,10.84931 0,10.31915 11.816655,13.8443 18.444835,8.68095 z"
   inkscape:connector-curvature="0"
   style="fill:#000000" /><path
   id="cl-9-8-0-2"
   d="m 110.70832,149.70136 c 0,0 -5.96737,4.77391 -5.96737,11.39203 0,3.8744 3.43971,10.3066 11.39202,10.3066 7.95232,0 11.39203,-6.43471 11.39203,-10.3066 0,-6.61812 -5.96737,-11.39203 -5.96737,-11.39203 6.62818,5.16335 18.44483,1.6382 18.44483,-8.68095 0,-5.16586 -4.22112,-10.84931 -10.84931,-10.84931 -7.95231,0 -11.39202,8.68095 -11.39202,8.68095 0,0 -1.01006,-9.89453 4.88193,-15.19104 h -13.02017 c 5.89199,5.294 4.88193,15.19104 4.88193,15.19104 0,0 -3.43972,-8.68095 -11.39203,-8.68095 -6.630687,0 -10.849305,5.68596 -10.849305,10.84931 0,10.31915 11.816655,13.8443 18.444835,8.68095 z"
   inkscape:connector-curvature="0"
   style="fill:#000000" /><path
   id="cl-9-8-9-6"
   d="m 46.077528,217.97589 c 0,0 -5.967372,4.77391 -5.967372,11.39203 0,3.8744 3.43972,10.3066 11.392028,10.3066 7.952308,0 11.392028,-6.43471 11.392028,-10.3066 0,-6.61812 -5.967373,-11.39203 -5.967373,-11.39203 6.62818,5.16335 18.444833,1.6382 18.444833,-8.68095 0,-5.16586 -4.22113,-10.84931 -10.849311,-10.84931 -7.952308,0 -11.392027,8.68095 -11.392027,8.68095 0,0 -1.010056,-9.89453 4.881939,-15.19104 H 44.992095 c 5.891994,5.294 4.881938,15.19104 4.881938,15.19104 0,0 -3.439718,-8.68095 -11.392027,-8.68095 -6.630693,0 -10.849311,5.68596 -10.849311,10.84931 0,10.31915 11.816654,13.8443 18.444833,8.68095 z"
   inkscape:connector-curvature="0"
   style="fill:#000000" /><path
   id="cl-9-8-0-4-9"
   d="m 46.261118,149.87509 c 0,0 -5.967372,4.77391 -5.967372,11.39203 0,3.8744 3.43972,10.3066 11.392028,10.3066 7.952308,0 11.392028,-6.43471 11.392028,-10.3066 0,-6.61812 -5.967373,-11.39203 -5.967373,-11.39203 6.62818,5.16335 18.444833,1.6382 18.444833,-8.68095 0,-5.16586 -4.22113,-10.84931 -10.849311,-10.84931 -7.952308,0 -11.392027,8.68095 -11.392027,8.68095 0,0 -1.010056,-9.89453 4.881939,-15.19104 H 45.175685 c 5.891994,5.294 4.881938,15.19104 4.881938,15.19104 0,0 -3.439718,-8.68095 -11.392027,-8.68095 -6.630693,0 -10.849311,5.68596 -10.849311,10.84931 0,10.31915 11.816654,13.8443 18.444833,8.68095 z"
   inkscape:connector-curvature="0"
   style="fill:#000000" /></svg>
